<svg width="800" height="600" viewBox="0 0 800 600" fill="none" xmlns="http://www.w3.org/2000/svg">
<rect width="800" height="600" fill="#1D5A8C"/>
<path d="M374.546 423.213H363.914C363.873 376.544 345.259 331.799 312.16 298.8C279.06 265.801 234.179 247.243 187.369 247.202V236.739C236.974 236.785 284.535 256.441 319.624 291.398C354.712 326.355 374.463 373.757 374.546 423.213Z" fill="#9ECADA"/>
<path d="M612.183 186.18V175.58C571.47 175.635 531.395 185.648 495.47 204.741C459.544 223.835 428.867 251.426 406.129 285.093C408.225 288.4 410.262 291.727 412.202 295.131C433.75 261.759 463.344 234.302 498.277 215.27C533.211 196.238 572.372 186.236 612.183 186.18Z" fill="white"/>
<path d="M612.183 247.241V236.739C574.374 236.804 537.468 248.263 506.308 269.612C475.149 290.96 451.191 321.202 437.578 356.367C439.342 362.943 440.876 369.617 442.117 376.387C452.441 339.305 474.652 306.61 505.358 283.292C536.066 259.974 573.582 247.313 612.183 247.241Z" fill="white"/>
<path d="M612.183 216.72V206.121C573.713 206.067 535.917 216.197 502.66 235.475C469.402 254.753 441.876 282.488 422.892 315.846C424.832 319.927 426.539 324.066 428.207 328.244C445.645 294.606 472.039 266.405 504.491 246.733C536.943 227.06 574.202 216.677 612.183 216.72Z" fill="white"/>
<path d="M187.35 206.121V216.72C242.263 216.782 294.909 238.557 333.738 277.268C372.567 315.979 394.408 368.466 394.47 423.213H405.101C405.034 365.656 382.071 310.477 341.249 269.779C300.428 229.081 245.081 206.187 187.35 206.121Z" fill="#9ECADA"/>
<path d="M435.734 423.213H425.103C425.032 360.369 399.959 300.121 355.387 255.684C310.816 211.247 250.384 186.251 187.35 186.18V175.58C253.202 175.657 316.335 201.771 362.899 248.195C409.465 294.618 435.658 357.56 435.734 423.213Z" fill="#9ECADA"/>
</svg>
