<svg width="240" height="141" viewBox="0 0 240 141" fill="none" xmlns="http://www.w3.org/2000/svg">
<path d="M105.776 139.992H99.7794C99.7562 113.671 89.2583 88.4347 70.5901 69.8231C51.9219 51.2115 26.6091 40.7453 0.20834 40.7222V34.8206C28.1853 34.8466 55.01 45.933 74.7998 65.6485C94.5897 85.3641 105.729 112.099 105.776 139.992Z" fill="#9ECADA"/>
<path d="M239.803 6.30525V0.327271C216.841 0.358049 194.239 6.0055 173.977 16.7742C153.715 27.543 136.413 43.104 123.589 62.0924C124.771 63.9578 125.92 65.8341 127.014 67.7541C139.167 48.9321 155.858 33.4466 175.56 22.7123C195.263 11.978 217.35 6.33715 239.803 6.30525Z" fill="white"/>
<path d="M239.803 40.7441V34.8206C218.479 34.8575 197.664 41.3203 180.09 53.3609C162.516 65.4016 149.004 82.4577 141.326 102.291C142.321 106 143.186 109.764 143.886 113.582C149.709 92.6679 162.236 74.2281 179.554 61.0766C196.873 47.9251 218.032 40.7843 239.803 40.7441Z" fill="white"/>
<path d="M239.803 23.5301V17.5521C218.106 17.5217 196.789 23.2349 178.032 34.1077C159.275 44.9806 143.75 60.6233 133.043 79.4373C134.137 81.739 135.1 84.0735 136.041 86.4298C145.876 67.458 160.762 51.5525 179.065 40.4573C197.368 29.3621 218.382 23.5057 239.803 23.5301Z" fill="white"/>
<path d="M0.197395 17.5521V23.5301C31.1681 23.5648 60.8604 35.8459 82.76 57.6792C104.66 79.5124 116.978 109.115 117.013 139.992H123.009C122.971 107.53 110.02 76.409 86.9967 53.4553C63.9733 30.5015 32.7575 17.5897 0.197395 17.5521Z" fill="#9ECADA"/>
<path d="M140.286 139.992H134.29C134.25 104.548 120.109 70.568 94.9705 45.5057C69.832 20.4434 35.7485 6.34567 0.197395 6.30525V0.327271C37.3379 0.370576 72.9448 15.0991 99.2072 41.2818C125.47 67.4646 140.243 102.964 140.286 139.992Z" fill="#9ECADA"/>
</svg>
