<svg width="800" height="533" viewBox="0 0 800 533" fill="none" xmlns="http://www.w3.org/2000/svg">
<g clip-path="url(#clip0_1014_718)">
<rect width="800" height="533" fill="#ABCBC0"/>
<path d="M910.782 162.355C769.874 162.355 655.645 48.126 655.645 -92.7818C796.553 -92.7818 910.782 21.4469 910.782 162.355Z" fill="#80AB99"/>
<path d="M910.782 314.012L910.782 191.857L626.143 191.857L626.143 -92.7906L503.988 -92.7906C503.988 131.876 686.116 314.012 910.782 314.012Z" fill="#80AB99"/>
<path d="M910.782 527.858L910.782 341.491L476.509 341.491L476.509 -92.7818L290.151 -92.7819C290.151 249.992 568.017 527.858 910.782 527.858Z" fill="#80AB99"/>
<path d="M910.782 832.782L910.782 554.854L263.146 554.854L263.146 -92.7907L-14.7818 -92.7907C-14.7818 418.397 399.603 832.782 910.782 832.782Z" fill="#80AB99"/>
</g>
<defs>
<clipPath id="clip0_1014_718">
<rect width="800" height="533" fill="white"/>
</clipPath>
</defs>
</svg>
