<svg width="800" height="533" viewBox="0 0 800 533" fill="none" xmlns="http://www.w3.org/2000/svg">
<rect width="800" height="533" fill="#10253E"/>
<path d="M276.359 162.487C276.359 142.675 264.315 136.307 253.522 136.455L250 136.307V126.041H320.348L320.361 136.499C310.276 137.342 299.973 144.137 299.973 162.487V224.201L304.848 221.176C314.985 205.343 341.588 163.353 347.122 151.227C353.936 136.369 343.522 136.369 333.534 136.369V126H395.892V136.369H391.503C384.718 136.369 376.326 136.369 365.12 151.671C350.793 171.288 322.338 218.823 322.338 218.823C365.916 222.444 382.309 288.71 393.501 297.701C387.103 250.362 418.709 191.331 465.075 193.62C470.264 193.853 476.654 193.131 491.45 197.64C506.253 202.146 507.607 194.061 509.586 185.025H520.654V263.018H511.079C510.287 249.512 504.245 204.837 465.197 203.479C425.503 202.148 418.033 253.069 417.493 287.819C415.506 416.242 496.258 412.199 511.051 370.72C513.211 364.729 512.269 363.015 509.843 361.704C492.245 352.261 512.647 326.997 523.95 349.089C529.135 359.227 519.856 407.249 471.455 407.249C396.311 407.249 374.32 290.928 346.341 253.069C324.543 223.587 306.764 236.857 300.075 244.072L299.781 264.329L299.96 300.414C299.96 320.247 311.991 326.614 322.807 326.487L326.331 326.61V336.835H250V326.61L253.524 326.487C264.317 326.61 276.361 320.241 276.361 300.41L276.359 162.487ZM531.778 394.57H527.733V405.556H525.014V394.57H520.994V392.241H531.78V394.572L531.778 394.57ZM550 405.556H547.28V394.951H547.218L543.363 405.554H540.73L536.985 394.951H536.909V405.554H534.214V392.243H538.929L542.015 400.919H542.077L545.307 392.237H549.998V405.552L550 405.556Z" fill="white"/>
</svg>
