<svg width="800" height="533" viewBox="0 0 800 533" fill="none" xmlns="http://www.w3.org/2000/svg">
<g clip-path="url(#clip0_1137_640)">
<rect width="800" height="533" fill="#80AB99"/>
<path d="M535.867 141.472C561.756 95.9988 619.61 80.1247 665.076 106.021C639.186 151.495 581.333 167.369 535.867 141.472ZM552.819 -23.8341C553.132 28.4873 595.802 70.6523 648.131 70.34C647.819 18.0186 605.148 -24.1463 552.819 -23.8341ZM704.452 -91.8065C659.299 -65.3744 644.116 -7.33539 670.548 37.8185C715.702 11.3864 730.885 -46.6526 704.452 -91.8065ZM839.133 5.52747C793.66 -20.3618 735.814 -4.48771 709.925 40.9784C755.398 66.8678 813.244 50.9936 839.133 5.52747ZM822.181 170.834C821.869 118.513 779.198 76.3476 726.87 76.6599C727.182 128.981 769.852 171.146 822.181 170.834ZM670.548 238.806C715.702 212.374 730.885 154.335 704.452 109.181C659.299 135.613 644.116 193.653 670.548 238.806ZM436.756 24.8813C457.352 72.9869 513.034 95.285 561.139 74.697C540.544 26.5914 484.862 4.29322 436.756 24.8813ZM604.234 -167.958C572.872 -126.075 581.4 -66.6905 623.29 -35.3289C654.652 -77.2113 646.123 -136.596 604.234 -167.958ZM854.978 -119.339C803.021 -125.555 755.867 -88.483 749.644 -36.5259C801.601 -30.3101 848.755 -67.3819 854.978 -119.339ZM938.244 122.119C917.649 74.013 861.967 51.7149 813.861 72.3029C834.457 120.409 890.139 142.707 938.244 122.119ZM770.767 314.958C802.128 273.075 793.6 213.69 751.71 182.329C720.349 224.211 728.877 283.596 770.767 314.958ZM520.023 266.339C571.98 272.555 619.134 235.483 625.357 183.526C573.4 177.31 526.246 214.382 520.023 266.339ZM459.188 -152.708C448.875 -101.413 482.096 -51.4632 533.399 -41.1506C543.711 -92.446 510.491 -142.396 459.188 -152.708ZM769.25 -237.328C719.665 -220.614 693.025 -166.865 709.739 -117.279C759.324 -133.994 785.964 -187.743 769.25 -237.328ZM997.555 -11.1199C958.282 -45.7009 898.422 -41.9016 863.833 -2.62893C903.106 31.9521 962.966 28.1527 997.555 -11.1199ZM915.812 299.708C926.125 248.413 892.905 198.463 841.602 188.151C831.289 239.446 864.51 289.395 915.812 299.708ZM605.75 384.328C655.336 367.614 681.976 313.865 665.262 264.279C615.676 280.994 589.036 334.743 605.75 384.328ZM377.438 158.12C416.711 192.701 476.571 188.901 511.16 149.629C471.887 115.048 412.027 118.847 377.438 158.12ZM342.931 -112.469C347.006 -60.3036 392.598 -21.321 444.771 -25.3955C440.697 -77.5607 395.104 -116.543 342.931 -112.469ZM676.273 -317.888C633.134 -288.274 622.167 -229.298 651.782 -186.159C694.921 -215.773 705.887 -274.749 676.273 -317.888ZM1020.84 -131.919C973.628 -154.47 917.069 -134.477 894.511 -87.2636C941.724 -64.7127 998.284 -84.7059 1020.84 -131.919ZM1032.07 259.469C1027.99 207.304 982.402 168.321 930.229 172.395C934.304 224.561 979.896 263.543 1032.07 259.469ZM698.727 464.888C741.866 435.274 752.833 376.298 723.219 333.159C680.08 362.773 669.113 421.749 698.727 464.888ZM354.159 278.919C401.372 301.47 457.931 281.477 480.49 234.264C433.276 211.713 376.717 231.706 354.159 278.919ZM296.915 45.9972C322.12 91.85 379.728 108.594 425.581 83.3887C400.376 37.536 342.768 20.7919 296.915 45.9972ZM516.03 -278.504C488.921 -233.752 503.227 -175.49 547.979 -148.381C575.088 -193.133 560.782 -251.395 516.03 -278.504ZM906.608 -251.001C854.294 -252.102 810.991 -210.584 809.898 -158.27C862.212 -157.169 905.515 -198.687 906.608 -251.001ZM1078.09 101.003C1052.88 55.1499 995.272 38.4059 949.42 63.6112C974.625 109.464 1032.23 126.208 1078.09 101.003ZM858.97 425.504C886.079 380.752 871.774 322.489 827.022 295.381C799.913 340.133 814.218 398.395 858.97 425.504ZM468.385 398.001C520.699 399.102 564.002 357.583 565.095 305.27C512.781 304.169 469.478 345.687 468.385 398.001ZM581.437 463.044C594.018 466.472 606.992 459.044 610.42 446.464C613.847 433.883 606.42 420.909 593.839 417.481C581.259 414.054 568.284 421.481 564.857 434.062C561.429 446.642 568.857 459.617 581.437 463.044ZM297.116 176.418C300.439 189.028 313.354 196.552 325.964 193.229C338.574 189.905 346.099 176.99 342.775 164.38C339.452 151.77 326.537 144.246 313.927 147.569C301.317 150.893 293.792 163.808 297.116 176.418ZM403.179 -213.119C393.922 -203.937 393.862 -188.984 403.045 -179.728C412.227 -170.471 427.18 -170.411 436.436 -179.594C445.693 -188.776 445.753 -203.728 436.57 -212.985C427.388 -222.242 412.436 -222.301 403.179 -213.119ZM793.563 -316.044C780.983 -319.472 768.008 -312.044 764.581 -299.464C761.153 -286.883 768.581 -273.909 781.161 -270.481C793.742 -267.054 806.716 -274.482 810.144 -287.062C813.571 -299.642 806.144 -312.617 793.563 -316.044ZM1077.88 -29.4179C1074.56 -42.028 1061.65 -49.5524 1049.04 -46.2288C1036.43 -42.9053 1028.9 -29.9904 1032.23 -17.3803C1035.55 -4.77026 1048.46 2.75416 1061.07 -0.569371C1073.68 -3.8929 1081.21 -16.8078 1077.88 -29.4179ZM971.822 360.119C981.079 350.936 981.138 335.984 971.956 326.727C962.773 317.471 947.821 317.411 938.564 326.594C929.307 335.776 929.248 350.728 938.43 359.985C947.613 369.242 962.565 369.301 971.822 360.119ZM401.298 358.253C410.495 367.495 425.447 367.532 434.689 358.334C443.931 349.137 443.968 334.185 434.771 324.943C425.574 315.701 410.621 315.664 401.379 324.861C392.138 334.059 392.1 349.011 401.298 358.253ZM297.8 -31.983C294.395 -19.3953 301.837 -6.42831 314.425 -3.023C327.013 0.382319 339.98 -7.06029 343.385 -19.6481C346.79 -32.2358 339.348 -45.2028 326.76 -48.6081C314.172 -52.0134 301.205 -44.5708 297.8 -31.983ZM583.995 -316.728C571.392 -313.382 563.883 -300.46 567.229 -287.857C570.575 -275.255 583.497 -267.745 596.1 -271.091C608.702 -274.437 616.212 -287.359 612.866 -299.962C609.52 -312.565 596.598 -320.074 583.995 -316.728ZM973.695 -211.253C964.498 -220.495 949.546 -220.532 940.304 -211.335C931.062 -202.137 931.025 -187.185 940.222 -177.943C949.42 -168.701 964.372 -168.664 973.614 -177.861C982.856 -187.059 982.893 -202.011 973.695 -211.253ZM1077.2 178.983C1080.61 166.395 1073.16 153.428 1060.58 150.023C1047.99 146.618 1035.02 154.06 1031.62 166.648C1028.21 179.236 1035.65 192.203 1048.24 195.608C1060.83 199.013 1073.8 191.571 1077.2 178.983ZM791.005 463.728C803.608 460.382 811.118 447.46 807.772 434.857C804.426 422.255 791.504 414.745 778.901 418.091C766.298 421.437 758.789 434.359 762.135 446.962C765.48 459.565 778.403 467.074 791.005 463.728Z" fill="#ABCBC0"/>
<path d="M50.716 504.816C66.6429 476.841 102.234 467.075 130.204 483.007C114.277 510.982 78.6865 520.748 50.716 504.816ZM61.1449 403.121C61.337 435.309 87.5876 461.248 119.78 461.056C119.588 428.868 93.3372 402.929 61.1449 403.121ZM154.429 361.305C126.65 377.565 117.31 413.271 133.571 441.049C161.349 424.788 170.689 389.083 154.429 361.305ZM237.283 421.184C209.308 405.257 173.722 415.023 157.795 442.993C185.77 458.92 221.356 449.154 237.283 421.184ZM226.854 522.879C226.662 490.691 200.412 464.752 168.219 464.944C168.411 497.132 194.662 523.071 226.854 522.879ZM133.571 564.695C161.349 548.435 170.689 512.729 154.429 484.951C126.65 501.212 117.31 536.917 133.571 564.695ZM-10.2564 433.09C2.41376 462.684 36.669 476.402 66.2633 463.736C53.5931 434.142 19.3378 420.424 -10.2564 433.09ZM92.7746 314.457C73.4812 340.223 78.7276 376.756 104.498 396.049C123.791 370.283 118.545 333.75 92.7746 314.457ZM247.031 344.367C215.067 340.543 186.058 363.349 182.23 395.313C214.193 399.137 243.202 376.33 247.031 344.367ZM298.256 492.91C285.586 463.316 251.33 449.598 221.736 462.264C234.406 491.858 268.661 505.575 298.256 492.91ZM195.225 611.543C214.518 585.777 209.272 549.244 183.501 529.951C164.208 555.716 169.454 592.25 195.225 611.543ZM40.9686 581.633C72.9323 585.457 101.941 562.651 105.77 530.687C73.8059 526.863 44.7971 549.67 40.9686 581.633ZM3.54356 323.838C-2.80068 355.395 17.6363 386.123 49.1974 392.468C55.5416 360.911 35.1047 330.183 3.54356 323.838ZM194.292 271.781C163.787 282.063 147.398 315.129 157.681 345.634C188.185 335.351 204.574 302.285 194.292 271.781ZM334.743 410.942C310.583 389.668 273.757 392.006 252.478 416.166C276.639 437.44 313.465 435.103 334.743 410.942ZM284.456 602.162C290.8 570.605 270.363 539.876 238.802 533.532C232.458 565.089 252.895 595.817 284.456 602.162ZM93.7077 654.219C124.212 643.937 140.601 610.871 130.319 580.366C99.8141 590.649 83.4252 623.715 93.7077 654.219ZM-46.7484 515.058C-22.5881 536.332 14.2377 533.994 35.5163 509.834C11.3561 488.56 -25.4698 490.897 -46.7484 515.058ZM-67.9767 348.593C-65.4701 380.685 -37.4218 404.667 -5.32557 402.16C-7.83216 370.068 -35.8804 346.087 -67.9767 348.593ZM137.093 222.221C110.554 240.439 103.807 276.721 122.026 303.26C148.565 285.041 155.311 248.759 137.093 222.221ZM349.069 336.627C320.024 322.754 285.229 335.054 271.351 364.099C300.396 377.972 335.191 365.673 349.069 336.627ZM355.976 577.407C353.469 545.315 325.421 521.333 293.325 523.84C295.831 555.931 323.88 579.913 355.976 577.407ZM150.906 703.779C177.445 685.561 184.192 649.279 165.973 622.74C139.435 640.959 132.688 677.24 150.906 703.779ZM-61.0698 589.373C-32.0244 603.246 2.77054 590.946 16.6483 561.901C-12.3971 548.027 -47.1921 560.327 -61.0698 589.373ZM-96.2856 446.08C-80.7795 474.289 -45.3396 484.59 -17.1313 469.083C-32.6374 440.875 -68.0773 430.574 -96.2856 446.08ZM38.5124 246.45C21.8353 273.981 30.6358 309.823 58.1672 326.5C74.8442 298.969 66.0437 263.127 38.5124 246.45ZM278.793 263.369C246.61 262.692 219.97 288.234 219.298 320.417C251.481 321.094 278.121 295.552 278.793 263.369ZM384.285 479.919C368.779 451.711 333.339 441.41 305.131 456.916C320.637 485.125 356.077 495.426 384.285 479.919ZM249.487 679.55C266.164 652.019 257.364 616.177 229.832 599.499C213.155 627.031 221.956 662.873 249.487 679.55ZM9.20169 662.631C41.3849 663.308 68.0243 637.766 68.6967 605.583C36.5135 604.906 9.87408 630.448 9.20169 662.631ZM78.7505 702.645C86.4898 704.754 94.4716 700.184 96.5802 692.445C98.6889 684.705 94.1194 676.724 86.3801 674.615C78.6407 672.506 70.659 677.076 68.5503 684.815C66.4417 692.554 71.0112 700.536 78.7505 702.645ZM-96.1621 526.314C-94.1175 534.072 -86.1723 538.701 -78.4147 536.656C-70.6571 534.612 -66.0281 526.667 -68.0727 518.909C-70.1173 511.151 -78.0625 506.522 -85.8201 508.567C-93.5778 510.612 -98.2067 518.557 -96.1621 526.314ZM-30.9129 286.674C-36.6077 292.323 -36.6443 301.521 -30.9953 307.216C-25.3463 312.911 -16.1478 312.947 -10.4531 307.298C-4.75838 301.65 -4.72179 292.451 -10.3708 286.756C-16.0198 281.062 -25.2182 281.025 -30.9129 286.674ZM209.249 223.355C201.509 221.246 193.528 225.816 191.419 233.555C189.31 241.295 193.88 249.276 201.619 251.385C209.359 253.494 217.34 248.924 219.449 241.185C221.558 233.445 216.988 225.464 209.249 223.355ZM384.161 399.686C382.117 391.928 374.172 387.299 366.414 389.344C358.656 391.388 354.027 399.333 356.072 407.091C358.117 414.849 366.062 419.478 373.819 417.433C381.577 415.388 386.206 407.443 384.161 399.686ZM318.912 639.326C324.607 633.677 324.644 624.479 318.995 618.784C313.346 613.089 304.147 613.052 298.452 618.701C292.758 624.35 292.721 633.549 298.37 639.244C304.019 644.938 313.218 644.975 318.912 639.326ZM-32.0702 638.178C-26.412 643.863 -17.2136 643.886 -11.528 638.228C-5.84244 632.57 -5.81957 623.372 -11.4777 617.686C-17.1358 612 -26.3343 611.978 -32.0199 617.636C-37.7054 623.294 -37.7283 632.492 -32.0702 638.178ZM-95.7413 398.108C-97.8362 405.851 -93.2576 413.829 -85.5137 415.924C-77.7698 418.019 -69.7926 413.44 -67.6976 405.696C-65.6027 397.952 -70.1814 389.975 -77.9253 387.88C-85.6692 385.785 -93.6464 390.364 -95.7413 398.108ZM80.324 222.934C72.5709 224.993 67.9511 232.942 70.0094 240.695C72.0678 248.448 80.0175 253.068 87.7706 251.01C95.5236 248.952 100.143 241.002 98.0851 233.249C96.0268 225.496 88.077 220.876 80.324 222.934ZM320.065 287.822C314.407 282.136 305.208 282.114 299.523 287.772C293.837 293.43 293.814 302.628 299.472 308.314C305.131 314 314.329 314.022 320.015 308.364C325.7 302.706 325.723 293.508 320.065 287.822ZM383.741 527.892C385.836 520.148 381.257 512.171 373.513 510.076C365.769 507.981 357.792 512.56 355.697 520.304C353.602 528.048 358.181 536.025 365.925 538.12C373.669 540.215 381.646 535.636 383.741 527.892ZM207.675 703.066C215.428 701.007 220.048 693.058 217.99 685.305C215.932 677.552 207.982 672.932 200.229 674.99C192.476 677.048 187.856 684.998 189.914 692.751C191.973 700.504 199.922 705.124 207.675 703.066Z" fill="#ABCBC0"/>
</g>
<defs>
<clipPath id="clip0_1137_640">
<rect width="800" height="533" fill="white"/>
</clipPath>
</defs>
</svg>
