<svg width="440" height="300" viewBox="0 0 440 300" fill="none" xmlns="http://www.w3.org/2000/svg">
<g clip-path="url(#clip0_1167_637)">
<path d="M266.848 298.927L420.958 171.025C437.975 212.344 427.126 261.6 390.928 291.638C354.73 321.68 304.321 323.265 266.844 298.927H266.848Z" fill="#5798C0" fill-opacity="0.4"/>
<path d="M173.152 233.073L19.0381 360.975C2.02074 319.656 12.87 270.4 49.0681 240.362C85.2663 210.32 135.675 208.735 173.152 233.073Z" fill="#5798C0" fill-opacity="0.4"/>
<path d="M256.12 228.18L116.738 60.2348C161.765 41.6896 215.441 53.5126 248.18 92.9578C280.919 132.403 282.647 187.342 256.12 228.18Z" fill="#5798C0" fill-opacity="0.4"/>
<path d="M192.235 200.945L30.1357 185.708C44.1383 152.187 78.715 130.146 116.787 133.727C154.859 137.304 184.722 165.403 192.235 200.945Z" fill="#5798C0" fill-opacity="0.4"/>
<path d="M300.023 224.501L311.924 97.8793C338.108 108.818 355.325 135.825 352.53 165.566C349.735 195.307 327.788 218.631 300.023 224.501Z" fill="#5798C0" fill-opacity="0.4"/>
</g>
<defs>
<clipPath id="clip0_1167_637">
<rect width="440" height="300" fill="white"/>
</clipPath>
</defs>
</svg>
