<svg width="480" height="400" viewBox="0 0 480 400" fill="none" xmlns="http://www.w3.org/2000/svg">
<g clip-path="url(#clip0_986_738)">
<path d="M521.62 0.000221252C521.62 66.6184 467.618 120.621 401 120.621C334.385 120.621 280.379 66.6184 280.379 0.000221252C280.379 -66.618 334.385 -120.62 401 -120.62C467.618 -120.62 521.62 -66.618 521.62 0.000221252Z" fill="#1D5A8C" fill-opacity="0.3"/>
<path d="M400.959 213.506L479.863 292.411C436.334 335.94 365.76 335.94 322.231 292.411C322.199 292.379 322.174 292.35 322.143 292.323L400.959 213.506Z" fill="#1D5A8C" fill-opacity="0.3"/>
<path d="M187.493 -0.0450644L108.589 78.8594C65.0591 35.3299 65.0591 -35.2437 108.589 -78.7733C108.62 -78.8051 108.65 -78.8296 108.677 -78.8614L187.493 -0.0450644Z" fill="#1D5A8C" fill-opacity="0.3"/>
<path d="M586.595 185.59C630.124 142.061 630.124 71.4857 586.595 27.9564L428.961 185.59C472.49 229.12 543.066 229.12 586.595 185.59Z" fill="#1D5A8C" fill-opacity="0.3"/>
<path d="M215.412 185.59C258.941 229.12 329.516 229.12 373.046 185.59L215.412 27.9564C171.882 71.4857 171.882 142.061 215.412 185.59Z" fill="#1D5A8C" fill-opacity="0.3"/>
<path d="M259.992 280.501C221.753 292.335 178.408 283.139 148.135 252.867C117.862 222.594 108.666 179.248 120.5 141.009L259.992 280.501Z" fill="#1D5A8C" fill-opacity="0.3"/>
<path d="M465.156 360.216C452.686 383.866 427.869 399.996 399.272 399.996C370.678 399.996 345.862 383.866 333.388 360.216H465.156Z" fill="#1D5A8C" fill-opacity="0.3"/>
<path d="M40.7798 64.1565C17.13 51.6859 1 26.8694 1 -1.72772C1 -30.3214 17.13 -55.1379 40.7798 -67.6119V64.1565Z" fill="#1D5A8C" fill-opacity="0.3"/>
</g>
<defs>
<clipPath id="clip0_986_738">
<rect width="480" height="400" fill="#1D5A8C"/>
</clipPath>
</defs>
</svg>
