<svg width="1200" height="350" viewBox="0 0 1200 350" fill="none" xmlns="http://www.w3.org/2000/svg">
<path d="M212.5 333.32L139.45 86.1802C196.95 87.0202 249.69 124.84 266.85 182.89C284.01 240.94 260.31 301.36 212.51 333.32H212.5Z" fill="#DFEFF3"/>
<path d="M16.8398 197.8L152.36 333.32C172.24 295.46 166.26 247.56 134.43 215.73C102.6 183.9 54.6998 177.92 16.8398 197.8Z" fill="#BFDFE8"/>
<path d="M90.34 170.19C103.495 170.19 114.16 159.525 114.16 146.37C114.16 133.214 103.495 122.55 90.34 122.55C77.1846 122.55 66.52 133.214 66.52 146.37C66.52 159.525 77.1846 170.19 90.34 170.19Z" fill="#BFDFE8"/>
<path d="M394.32 230.66L291.66 333.32C276.6 304.64 281.13 268.35 305.24 244.24C329.35 220.13 365.64 215.6 394.32 230.66Z" fill="#9ECADA"/>
<path d="M338.65 202.79C351.806 202.79 362.47 192.125 362.47 178.97C362.47 165.814 351.806 155.15 338.65 155.15C325.495 155.15 314.83 165.814 314.83 178.97C314.83 192.125 325.495 202.79 338.65 202.79Z" fill="#9ECADA"/>
<path d="M240.67 86.1802C259.862 86.1802 275.42 70.6221 275.42 51.4302C275.42 32.2383 259.862 16.6802 240.67 16.6802C221.478 16.6802 205.92 32.2383 205.92 51.4302C205.92 70.6221 221.478 86.1802 240.67 86.1802Z" fill="#DFEFF3"/>
<path d="M462.15 296.47V239.31H475.98V281.58H546.97V243.03H560.8V281.58H648.27V296.47H462.16H462.15ZM615.82 224.95H494.58C473.31 224.95 458.95 210.06 458.95 187.73C458.95 165.4 473.31 150.51 494.58 150.51H527.02V165.4H495.12C481.56 165.4 472.79 174.17 472.79 187.73C472.79 201.29 481.56 210.06 495.12 210.06H615.29C628.85 210.06 637.62 201.02 637.62 187.73C637.62 174.44 628.85 165.4 615.29 165.4H580.73V150.51H615.82C637.09 150.51 651.45 165.4 651.45 187.73C651.45 210.06 637.09 224.95 615.82 224.95ZM615.82 128.18H494.58C473.31 128.18 458.95 113.29 458.95 90.9602C458.95 68.6302 473.31 53.7402 494.58 53.7402H527.02V68.6302H495.12C481.56 68.6302 472.79 77.4002 472.79 90.9602C472.79 104.52 481.56 113.29 495.12 113.29H615.29C628.85 113.29 637.62 104.25 637.62 90.9602C637.62 77.6702 628.85 68.6302 615.29 68.6302H580.73V53.7402H615.82C637.09 53.7402 651.45 68.6302 651.45 90.9602C651.45 113.29 637.09 128.18 615.82 128.18Z" fill="#BFDFE8"/>
<path d="M697.56 175.37V53.5298H720.19V175.37H697.56ZM717.58 146.65L716.54 119.85L780.24 53.5398H805.83L752.74 109.93L740.21 123.68L717.58 146.66V146.65ZM782.5 175.37L735.68 119.85L750.82 103.32L809.13 175.38H782.5V175.37Z" fill="white"/>
<path d="M821.31 175.37V53.5298H843.94V175.37H821.31Z" fill="white"/>
<path d="M875.9 175.37V53.5298H929.33C942.32 53.5298 953.84 56.0498 963.88 61.0998C973.92 66.1498 981.72 73.2598 987.29 82.4198C992.86 91.5898 995.64 102.26 995.64 114.45C995.64 126.64 992.85 137.31 987.29 146.48C981.72 155.65 973.91 162.75 963.88 167.8C953.84 172.85 942.32 175.37 929.33 175.37H875.9ZM898.53 156.22H927.94C937.11 156.22 945.02 154.48 951.7 151C958.37 147.52 963.59 142.65 967.36 136.38C971.13 130.11 973.02 122.8 973.02 114.45C973.02 106.1 971.13 98.4998 967.36 92.3498C963.59 86.1998 958.37 81.3798 951.7 77.8998C945.03 74.4198 937.11 72.6798 927.94 72.6798H898.53V156.23V156.22Z" fill="white"/>
<path d="M1057.43 177.11C1047.91 177.11 1038.83 175.74 1030.19 173.02C1021.54 170.29 1014.61 166.78 1009.39 162.49L1017.22 144.91C1022.09 148.74 1028.13 151.93 1035.32 154.48C1042.51 157.03 1049.88 158.31 1057.43 158.31C1063.81 158.31 1068.98 157.61 1072.92 156.22C1076.86 154.83 1079.77 152.94 1081.62 150.56C1083.47 148.18 1084.4 145.49 1084.4 142.47C1084.4 138.76 1083.06 135.77 1080.4 133.51C1077.73 131.25 1074.28 129.45 1070.04 128.11C1065.8 126.78 1061.1 125.56 1055.94 124.45C1050.78 123.35 1045.61 121.99 1040.45 120.36C1035.29 118.74 1030.56 116.68 1026.26 114.18C1021.97 111.69 1018.51 108.35 1015.9 104.17C1013.29 99.9898 1011.98 94.6598 1011.98 88.1598C1011.98 81.6598 1013.75 75.4798 1017.29 69.9698C1020.83 64.4598 1026.22 60.0498 1033.48 56.7398C1040.73 53.4298 1049.93 51.7798 1061.07 51.7798C1068.38 51.7798 1075.63 52.7098 1082.83 54.5698C1090.02 56.4298 1096.29 59.0898 1101.63 62.5798L1094.49 80.1598C1089.03 76.9098 1083.41 74.4998 1077.61 72.9398C1071.81 71.3698 1066.24 70.5898 1060.9 70.5898C1054.75 70.5898 1049.7 71.3498 1045.76 72.8498C1041.81 74.3598 1038.94 76.3598 1037.14 78.8598C1035.34 81.3598 1034.44 84.1098 1034.44 87.1298C1034.44 90.8398 1035.75 93.8298 1038.36 96.0898C1040.97 98.3498 1044.39 100.12 1048.63 101.4C1052.86 102.68 1057.59 103.9 1062.82 105.05C1068.04 106.21 1073.2 107.57 1078.31 109.14C1083.41 110.71 1088.11 112.74 1092.41 115.23C1096.7 117.73 1100.16 121.03 1102.77 125.15C1105.38 129.27 1106.69 134.52 1106.69 140.9C1106.69 147.28 1104.92 153.4 1101.38 158.91C1097.84 164.42 1092.42 168.83 1085.11 172.14C1077.8 175.45 1068.57 177.1 1057.43 177.1V177.11Z" fill="white"/>
<path d="M710.94 296.47H697.56V224.42H750.15V235.74H710.94V296.47ZM709.91 257.67H745.73V268.79H709.91V257.67Z" fill="white"/>
<path d="M747.98 296.47L780.4 224.42H793.57L826.09 296.47H811.99L784.2 231.52H789.55L761.66 296.47H747.97H747.98ZM762.9 279.79L766.6 269.29H805.4L809 279.79H762.89H762.9Z" fill="white"/>
<path d="M836.19 296.47V224.42H847.2L878.7 277.01H872.94L903.92 224.42H914.93L915.14 296.47H902.27V244.29H904.84L878.7 288.34H872.63L845.87 244.29H848.96V296.47H836.2H836.19Z" fill="white"/>
<path d="M934.48 296.47V224.42H947.86V296.47H934.48Z" fill="white"/>
<path d="M967.32 296.47V224.42H980.7V285.15H1018.37V296.47H967.32Z" fill="white"/>
<path d="M1028.03 296.47V224.42H1041.41V296.47H1028.03Z" fill="white"/>
<path d="M1075.18 285.15H1115.84V296.47H1061.8V224.42H1114.39V235.74H1075.18V285.14V285.15ZM1074.15 254.37H1109.97V265.38H1074.15V254.37Z" fill="white"/>
<path d="M1154.03 297.5C1148.4 297.5 1143.03 296.69 1137.92 295.08C1132.81 293.47 1128.71 291.39 1125.62 288.85L1130.25 278.46C1133.13 280.72 1136.7 282.61 1140.95 284.12C1145.2 285.63 1149.56 286.38 1154.02 286.38C1157.79 286.38 1160.85 285.97 1163.18 285.15C1165.51 284.33 1167.23 283.21 1168.33 281.8C1169.43 280.39 1169.98 278.8 1169.98 277.01C1169.98 274.81 1169.19 273.05 1167.61 271.71C1166.03 270.37 1163.99 269.31 1161.49 268.52C1158.98 267.73 1156.21 267.01 1153.15 266.36C1150.1 265.71 1147.04 264.9 1143.99 263.94C1140.94 262.98 1138.14 261.76 1135.6 260.29C1133.06 258.82 1131.02 256.84 1129.48 254.37C1127.94 251.9 1127.16 248.74 1127.16 244.9C1127.16 241.06 1128.21 237.4 1130.3 234.14C1132.39 230.88 1135.58 228.27 1139.87 226.32C1144.16 224.36 1149.6 223.39 1156.18 223.39C1160.5 223.39 1164.79 223.94 1169.05 225.04C1173.3 226.14 1177.01 227.72 1180.17 229.77L1175.95 240.16C1172.72 238.24 1169.4 236.82 1165.97 235.89C1162.54 234.96 1159.24 234.5 1156.09 234.5C1152.45 234.5 1149.47 234.95 1147.14 235.84C1144.81 236.73 1143.11 237.92 1142.05 239.39C1140.99 240.87 1140.45 242.5 1140.45 244.28C1140.45 246.48 1141.22 248.24 1142.77 249.58C1144.32 250.92 1146.34 251.97 1148.84 252.72C1151.34 253.48 1154.14 254.2 1157.23 254.88C1160.32 255.57 1163.37 256.37 1166.39 257.3C1169.41 258.23 1172.19 259.43 1174.73 260.9C1177.27 262.38 1179.31 264.33 1180.85 266.77C1182.39 269.21 1183.17 272.31 1183.17 276.09C1183.17 279.87 1182.12 283.49 1180.03 286.74C1177.94 290 1174.73 292.61 1170.41 294.56C1166.09 296.52 1160.63 297.49 1154.05 297.49L1154.03 297.5Z" fill="white"/>
<path d="M1181.29 119.56H1158.06V142.41H1147.34V119.56H1124.11V109.48H1147.34V86.5H1158.06V109.48H1181.29V119.56Z" fill="#BFDFE8"/>
</svg>
