<svg width="440" height="300" viewBox="0 0 440 300" fill="none" xmlns="http://www.w3.org/2000/svg">
<g clip-path="url(#clip0_988_718)">
<path d="M390.465 300C390.465 349.964 349.963 390.465 300 390.465C250.039 390.465 209.534 349.964 209.534 300C209.534 250.037 250.039 209.535 300 209.535C349.963 209.535 390.465 250.037 390.465 300Z" fill="#5798C0" fill-opacity="0.4"/>
<path d="M439.196 160.804C406.549 128.157 353.618 128.157 320.971 160.804L439.196 279.03C471.843 246.383 471.843 193.451 439.196 160.804Z" fill="#5798C0" fill-opacity="0.4"/>
<path d="M300.034 139.869L240.856 80.6904C273.503 48.0432 326.433 48.0432 359.08 80.6904C359.104 80.7142 359.123 80.7363 359.146 80.7565L300.034 139.869Z" fill="#5798C0" fill-opacity="0.4"/>
<path d="M139.87 299.966L80.6917 359.145C48.0446 326.497 48.0446 273.567 80.6917 240.92C80.7156 240.896 80.7376 240.878 80.7578 240.854L139.87 299.966Z" fill="#5798C0" fill-opacity="0.4"/>
<path d="M405.761 89.6214C434.44 80.7462 466.949 87.6428 489.654 110.347C512.359 133.052 519.255 165.561 510.38 194.241L405.761 89.6214Z" fill="#5798C0" fill-opacity="0.4"/>
<path d="M160.808 160.804C128.162 193.451 128.162 246.383 160.808 279.03L279.034 160.804C246.387 128.157 193.455 128.157 160.808 160.804Z" fill="#5798C0" fill-opacity="0.4"/>
<path d="M89.6248 194.241C80.7496 165.561 87.6462 133.052 110.351 110.347C133.055 87.6428 165.565 80.7462 194.244 89.6214L89.6248 194.241Z" fill="#5798C0" fill-opacity="0.4"/>
<path d="M251.882 29.8348C261.235 12.0975 279.847 0 301.295 0C322.74 0 341.353 12.0975 350.708 29.8348H251.882Z" fill="#5798C0" fill-opacity="0.4"/>
<path d="M29.8349 348.117C12.0975 338.764 0 320.152 0 298.704C0 277.259 12.0975 258.647 29.8349 249.291V348.117Z" fill="#5798C0" fill-opacity="0.4"/>
</g>
<defs>
<clipPath id="clip0_988_718">
<rect width="440" height="300" fill="white"/>
</clipPath>
</defs>
</svg>
