<svg width="800" height="533" viewBox="0 0 800 533" fill="none" xmlns="http://www.w3.org/2000/svg">
<g clip-path="url(#clip0_1014_718)">
<rect width="800" height="533" fill="#80AB99"/>
<path d="M895.896 161.964C759.502 161.964 648.934 51.3951 648.935 -84.9988C785.328 -84.9988 895.896 25.5705 895.896 161.964Z" fill="#ABCBC0"/>
<path d="M895.896 308.762V190.524H620.376V-84.9988H502.139V-84.9949C502.139 132.47 678.431 308.762 895.896 308.762Z" fill="#ABCBC0"/>
<path d="M895.896 515.753V335.361H475.54V-84.9988H295.15V-84.9923C295.15 246.79 564.113 515.753 895.896 515.753Z" fill="#ABCBC0"/>
<path d="M895.896 810.908L895.897 541.886H269.016V-84.9988H-0.00195312V-84.9897C-0.00195312 409.799 401.106 810.908 895.896 810.908Z" fill="#ABCBC0"/>
</g>
<defs>
<clipPath id="clip0_1014_718">
<rect width="800" height="533" fill="white"/>
</clipPath>
</defs>
</svg>
