<svg width="800" height="533" viewBox="0 0 800 533" fill="none" xmlns="http://www.w3.org/2000/svg">
<g clip-path="url(#clip0_1027_629)">
<rect width="800" height="533" fill="#C88885"/>
<path d="M639.182 338.507L978.648 56.8525C1016.14 147.84 992.238 256.305 912.505 322.461C832.77 388.616 721.73 392.11 639.182 338.507Z" fill="#DBB1A6"/>
<path d="M456.414 349.284L763.438 719.118C664.253 759.96 546.02 733.922 473.907 647.056C401.792 560.189 397.983 439.216 456.414 349.284Z" fill="#DBB1A6"/>
<path d="M597.15 409.259L954.21 442.814C923.364 516.63 847.205 565.165 763.34 557.285C679.473 549.403 613.698 487.529 597.15 409.259Z" fill="#DBB1A6"/>
<path d="M359.721 357.387L333.503 636.222C275.826 612.132 237.902 552.66 244.06 487.167C250.219 421.674 298.565 370.309 359.721 357.387Z" fill="#DBB1A6"/>
<path d="M432.799 193.498L93.3314 475.152C55.8431 384.164 79.743 275.699 159.476 209.544C239.211 143.389 350.251 139.894 432.799 193.498Z" fill="#DBB1A6"/>
<path d="M615.564 182.716L308.541 -187.118C407.726 -227.96 525.959 -201.923 598.072 -115.056C670.186 -28.1887 673.996 92.7839 615.564 182.716Z" fill="#DBB1A6"/>
<path d="M474.829 122.746L117.77 89.1921C148.616 15.376 224.773 -33.1607 308.639 -25.2787C392.506 -17.3982 458.281 44.476 474.829 122.746Z" fill="#DBB1A6"/>
<path d="M712.257 174.616L738.474 -104.219C796.151 -80.1296 834.075 -20.6576 827.918 44.8358C821.759 110.328 773.413 161.693 712.257 174.616Z" fill="#DBB1A6"/>
</g>
<defs>
<clipPath id="clip0_1027_629">
<rect width="800" height="533" fill="white"/>
</clipPath>
</defs>
</svg>
