<svg width="800" height="533" viewBox="0 0 800 533" fill="none" xmlns="http://www.w3.org/2000/svg">
<rect width="800" height="533" fill="#0E71C1"/>
<path d="M430 367C430 256.543 340.457 167 230 167V176.6C335.155 176.6 420.4 261.845 420.4 367H430Z" fill="white"/>
<path d="M230 192.6C326.318 192.6 404.4 270.682 404.4 367H394.8C394.8 275.983 321.017 202.2 230 202.2V192.6Z" fill="white"/>
<path d="M378.8 367C378.8 284.82 312.18 218.2 230 218.2V227.8C306.878 227.8 369.2 290.122 369.2 367H378.8Z" fill="white"/>
<path d="M409.419 246.69C445.921 198.288 503.907 167 569.2 167L569.2 176.6C505.749 176.6 449.547 207.637 414.948 255.358C413.172 252.422 411.328 249.532 409.419 246.69Z" fill="white"/>
<path d="M569.2 192.6C508.34 192.6 454.761 223.774 423.56 271.025C425.249 274.425 426.851 277.875 428.363 281.374C457.288 233.899 509.542 202.2 569.2 202.2V192.6Z" fill="white"/>
<path d="M569.2 218.2C510.688 218.2 460.065 251.972 435.758 301.086C437.276 305.829 438.635 310.644 439.828 315.523C460.297 264.126 510.506 227.8 569.2 227.8V218.2Z" fill="white"/>
</svg>
