<svg width="800" height="533" viewBox="0 0 800 533" fill="none" xmlns="http://www.w3.org/2000/svg">
<rect width="800" height="533" fill="white"/>
<path d="M654.764 149.197V206.793L607.055 149.197H581.945V257.169H611.92V199.574L659.629 257.169H684.739V149.197H654.764Z" fill="#0078AF"/>
<path d="M523.877 233.629V213.855H571.899V190.942H523.877V172.738H578.334V149.197H493.588V257.169H580.374V233.629H523.877Z" fill="#ED3124"/>
<path d="M492.02 233.629H435.523V213.855H483.546V190.942H435.523V172.738H489.98V149.197H405.234V256.071L406.019 257.169H492.02V233.629Z" fill="#009A9D"/>
<path d="M406.019 257.169L405.235 256.071L382.793 223.271C396.289 216.837 403.979 205.067 403.979 189.216C403.979 164.577 385.461 149.197 355.956 149.197H306.521V165.205C307.149 165.832 307.777 166.617 308.405 167.402L306.521 169.128V237.395L308.405 239.122C307.777 239.906 307.149 240.534 306.521 241.319V257.326H337.124V228.45H353.759L373.376 257.169H406.019ZM354.073 204.91H337.124V173.208H354.073C366.785 173.208 373.063 179.015 373.063 189.059C373.063 199.103 366.785 204.91 354.073 204.91Z" fill="#E18A26"/>
<path d="M288.943 221.388C282.194 229.549 273.877 234.1 263.519 234.1C245.785 234.1 233.387 221.702 233.387 203.183C233.387 184.665 245.785 172.267 263.519 172.267C273.877 172.267 282.194 176.661 288.943 184.979L306.52 169.128L308.403 167.402C307.775 166.617 307.147 165.989 306.52 165.205C296.005 153.434 280.625 147 261.95 147C227.581 147 202.471 170.384 202.471 203.183C202.471 203.968 202.471 204.753 202.471 205.694C206.708 210.245 209.376 216.209 209.376 224.527C209.376 226.41 209.219 228.293 208.905 230.019C218.478 248.067 237.938 259.367 261.95 259.367C280.782 259.367 296.005 252.932 306.52 241.162C307.147 240.377 307.775 239.75 308.403 238.965L306.52 237.239L288.943 221.388Z" fill="#3BB1AA"/>
<path d="M202.472 205.694C186.465 188.588 148.015 193.61 148.015 180.584C148.015 175.249 152.723 170.854 165.435 170.854C174.851 170.854 185.052 173.679 195.41 179.172L204.826 156.416C194.154 150.296 179.716 147 165.592 147C133.577 147 117.883 162.694 117.883 181.997C117.883 222.173 179.402 209.618 179.402 226.724C179.402 231.903 174.38 235.512 161.825 235.512C149.271 235.512 135.774 231.118 126.201 224.841L116 247.596C126.201 254.658 143.778 259.524 161.512 259.524C190.388 259.524 206.082 246.498 208.906 230.176C209.22 228.293 209.377 226.567 209.377 224.684C209.377 216.209 206.709 210.245 202.472 205.694Z" fill="#0078AF"/>
<path d="M632.79 276.831L607.209 319.674L581.628 276.831H569.858V300.999H563.895L590.574 345.726V384.803H621.019V346.04L662.451 276.831H632.79Z" fill="#ED3124"/>
<path d="M476.955 276.831V300.999H506.302V384.803H536.748V300.999H563.898H569.862V276.831H476.955Z" fill="#E18A26"/>
<path d="M476.954 276.831H446.352V384.803H476.954V300.999V276.831Z" fill="#3BB1AA"/>
<path d="M410.257 276.831V334.426L362.548 276.831H337.281V369.58L344.186 384.803H367.256V327.207L414.965 384.803H440.075V276.831H410.257Z" fill="#0078AF"/>
<path d="M232.761 352.16C232.761 312.298 171.556 324.696 171.556 308.218C171.556 302.882 176.264 298.488 188.976 298.488C198.392 298.488 208.593 301.313 218.951 306.805L228.367 284.05C217.695 277.929 203.257 274.633 189.133 274.633C156.961 274.633 141.267 290.327 141.267 309.63C141.267 349.806 202.63 337.251 202.63 354.357C202.63 359.536 197.764 363.146 185.053 363.146C172.498 363.146 159.001 358.751 149.428 352.474L139.541 375.073C149.742 382.135 167.319 387 185.053 387C202.473 387 215.028 382.292 222.874 374.916L232.918 352.317C232.761 352.317 232.761 352.16 232.761 352.16Z" fill="#009A9D"/>
<path d="M344.185 384.803L337.436 369.423L296.319 276.831H266.187L232.917 352.317L222.873 375.073L218.479 384.96H249.709L258.183 363.93H303.852L312.327 384.96H344.185V384.803ZM297.731 328.933H285.804V340.861H275.917V328.933H263.99V319.046H275.917V307.119H285.804V319.046H297.731V328.933Z" fill="#ED3124"/>
<path d="M630.28 386.843H631.221V380.879H633.419V379.781H627.926V380.723H630.123V386.843H630.28ZM635.145 386.843H636.087V381.507L638.597 385.274H638.754L641.265 381.507V386.843H642.207V379.938H641.108L638.597 383.704L636.087 379.938H634.988L635.145 386.843Z" fill="#ED3124"/>
<path d="M630.28 386.843H631.221V380.879H633.419V379.781H627.926V380.723H630.123V386.843H630.28ZM635.145 386.843H636.087V381.507L638.597 385.274H638.754L641.265 381.507V386.843H642.207V379.938H641.108L638.597 383.704L636.087 379.938H634.988L635.145 386.843Z" stroke="#ED3124" stroke-width="0.246" stroke-miterlimit="6.374"/>
</svg>
