<svg width="800" height="533" viewBox="0 0 800 533" fill="none" xmlns="http://www.w3.org/2000/svg">
<rect width="800" height="533" fill="#10253E"/>
<path d="M380.037 365.57H371.531C371.498 328.235 356.608 292.439 330.128 266.04C303.648 239.64 267.743 224.795 230.296 224.762V216.391C269.979 216.428 308.028 232.153 336.099 260.118C364.17 288.084 379.97 326.006 380.037 365.57Z" fill="#9ECADA"/>
<path d="M570.146 175.944V167.464C537.576 167.508 505.516 175.518 476.776 190.793C448.035 206.068 423.494 228.14 405.304 255.074C406.98 257.72 408.61 260.382 410.162 263.105C427.4 236.407 451.075 214.442 479.021 199.216C506.969 183.99 538.298 175.989 570.146 175.944Z" fill="white"/>
<path d="M570.146 224.793V216.391C539.899 216.443 510.374 225.61 485.447 242.689C460.519 259.768 441.353 283.961 430.462 312.094C431.874 317.355 433.101 322.694 434.094 328.109C442.353 298.444 460.122 272.288 484.687 253.633C509.252 234.979 539.265 224.85 570.146 224.793Z" fill="white"/>
<path d="M570.146 200.376V191.897C539.37 191.854 509.133 199.957 482.528 215.38C455.922 230.802 433.901 252.991 418.713 279.677C420.265 282.942 421.631 286.253 422.966 289.596C436.916 262.685 458.031 240.124 483.993 224.386C509.955 208.648 539.762 200.341 570.146 200.376Z" fill="white"/>
<path d="M230.28 191.896V200.376C274.21 200.425 316.327 217.845 347.39 248.814C378.454 279.783 395.926 321.773 395.976 365.57H404.481C404.427 319.525 386.057 275.381 353.4 242.823C320.742 210.264 276.465 191.95 230.28 191.896Z" fill="#9ECADA"/>
<path d="M428.987 365.57H420.482C420.426 315.295 400.367 267.096 364.71 231.547C329.052 195.998 280.707 176.001 230.28 175.944V167.464C282.962 167.526 333.468 188.417 370.719 225.556C407.972 262.694 428.926 313.048 428.987 365.57Z" fill="#9ECADA"/>
</svg>
