<svg width="800" height="533" viewBox="0 0 800 533" fill="none" xmlns="http://www.w3.org/2000/svg">
<g clip-path="url(#clip0_1027_629)">
<rect width="800" height="533" fill="#DBB1A6"/>
<path d="M641.472 345.833L991.722 55.1482C1030.4 149.056 1005.74 261 923.472 329.269C841.204 397.546 726.639 401.148 641.463 345.833H641.472Z" fill="#C88885"/>
<path d="M452.907 356.954L769.685 738.648C667.352 780.796 545.361 753.926 470.954 664.278C396.546 574.63 392.62 449.769 452.907 356.954Z" fill="#C88885"/>
<path d="M598.102 418.852L966.509 453.481C934.685 529.667 856.102 579.759 769.574 571.62C683.046 563.481 615.176 499.63 598.102 418.852Z" fill="#C88885"/>
<path d="M353.13 365.315L326.074 653.093C266.565 628.231 227.435 566.852 233.787 499.259C240.139 431.667 290.019 378.657 353.12 365.315H353.13Z" fill="#C88885"/>
<path d="M428.528 196.167L78.2685 486.852C39.5926 392.944 64.25 281 146.519 212.731C228.787 144.454 343.352 140.852 428.528 196.167Z" fill="#C88885"/>
<path d="M617.093 185.046L300.315 -196.648C402.648 -238.796 524.639 -211.926 599.046 -122.278C673.454 -32.6296 677.38 92.2315 617.093 185.046Z" fill="#C88885"/>
<path d="M471.898 123.148L103.491 88.5185C135.315 12.3333 213.898 -37.7593 300.426 -29.6204C386.954 -21.4908 454.824 42.3704 471.898 123.148Z" fill="#C88885"/>
<path d="M716.87 176.685L743.917 -111.093C803.426 -86.2315 842.556 -24.8518 836.204 42.7408C829.852 110.333 779.972 163.343 716.87 176.685Z" fill="#C88885"/>
</g>
<defs>
<clipPath id="clip0_1027_629">
<rect width="800" height="533" fill="white"/>
</clipPath>
</defs>
</svg>
