<svg width="800" height="533" viewBox="0 0 800 533" fill="none" xmlns="http://www.w3.org/2000/svg">
<g clip-path="url(#clip0_1140_444)">
<rect width="800" height="533" fill="#DBB1A6"/>
<path d="M589.479 656.309C589.479 521.332 698.899 411.912 833.876 411.912C833.876 546.89 724.457 656.309 589.479 656.309Z" fill="#C88885"/>
<path d="M556.521 656.309C556.521 521.332 447.101 411.912 312.124 411.912C312.124 546.89 421.543 656.309 556.521 656.309Z" fill="#C88885"/>
<path d="M573 450.109C651.198 371.911 651.198 245.125 573 166.926C494.802 245.125 494.802 371.911 573 450.109Z" fill="#C88885"/>
<path d="M573 -151.878C494.802 -73.6793 494.802 53.107 573 131.305C651.198 53.107 651.198 -73.6793 573 -151.878Z" fill="#C88885"/>
<path d="M65.8162 165.595C65.8162 300.572 175.236 409.992 310.213 409.992C310.213 275.014 200.794 165.595 65.8162 165.595Z" fill="#C88885"/>
<path d="M65.8162 132.637C200.794 132.637 310.213 23.2171 310.213 -111.76C175.236 -111.76 65.8162 -2.34087 65.8162 132.637Z" fill="#C88885"/>
<path d="M272.007 149.116C350.205 227.314 476.991 227.314 555.19 149.116C476.991 70.9175 350.205 70.9175 272.007 149.116Z" fill="#C88885"/>
<path d="M873.993 149.116C795.795 70.9175 669.009 70.9175 590.811 149.116C669.009 227.314 795.795 227.314 873.993 149.116Z" fill="#C88885"/>
</g>
<defs>
<clipPath id="clip0_1140_444">
<rect width="800" height="533" fill="white"/>
</clipPath>
</defs>
</svg>
