<svg width="800" height="533" viewBox="0 0 800 533" fill="none" xmlns="http://www.w3.org/2000/svg">
<rect width="800" height="533" fill="#1D5A8C"/>
<path d="M167.5 361.992L123.67 213.708C158.17 214.212 189.814 236.904 200.11 271.734C210.406 306.564 196.186 342.816 167.506 361.992H167.5Z" fill="#DFEFF3"/>
<path d="M50.1039 280.68L131.416 361.992C143.344 339.276 139.756 310.536 120.658 291.438C101.56 272.34 72.8199 268.752 50.1039 280.68Z" fill="#BFDFE8"/>
<path d="M94.204 264.114C102.097 264.114 108.496 257.715 108.496 249.822C108.496 241.928 102.097 235.53 94.204 235.53C86.3108 235.53 79.912 241.928 79.912 249.822C79.912 257.715 86.3108 264.114 94.204 264.114Z" fill="#BFDFE8"/>
<path d="M276.592 300.396L214.996 361.992C205.96 344.784 208.678 323.01 223.144 308.544C237.61 294.078 259.384 291.36 276.592 300.396Z" fill="#9ECADA"/>
<path d="M243.19 283.674C251.084 283.674 257.482 277.275 257.482 269.382C257.482 261.488 251.084 255.09 243.19 255.09C235.297 255.09 228.898 261.488 228.898 269.382C228.898 277.275 235.297 283.674 243.19 283.674Z" fill="#9ECADA"/>
<path d="M184.402 213.708C195.917 213.708 205.252 204.373 205.252 192.858C205.252 181.343 195.917 172.008 184.402 172.008C172.887 172.008 163.552 181.343 163.552 192.858C163.552 204.373 172.887 213.708 184.402 213.708Z" fill="#DFEFF3"/>
<path d="M317.29 339.882V305.586H325.588V330.948H368.182V307.818H376.48V330.948H428.962V339.882H317.296H317.29ZM409.492 296.97H336.748C323.986 296.97 315.37 288.036 315.37 274.638C315.37 261.24 323.986 252.306 336.748 252.306H356.212V261.24H337.072C328.936 261.24 323.674 266.502 323.674 274.638C323.674 282.774 328.936 288.036 337.072 288.036H409.174C417.31 288.036 422.572 282.612 422.572 274.638C422.572 266.664 417.31 261.24 409.174 261.24H388.438V252.306H409.492C422.254 252.306 430.87 261.24 430.87 274.638C430.87 288.036 422.254 296.97 409.492 296.97ZM409.492 238.908H336.748C323.986 238.908 315.37 229.974 315.37 216.576C315.37 203.178 323.986 194.244 336.748 194.244H356.212V203.178H337.072C328.936 203.178 323.674 208.44 323.674 216.576C323.674 224.712 328.936 229.974 337.072 229.974H409.174C417.31 229.974 422.572 224.55 422.572 216.576C422.572 208.602 417.31 203.178 409.174 203.178H388.438V194.244H409.492C422.254 194.244 430.87 203.178 430.87 216.576C430.87 229.974 422.254 238.908 409.492 238.908Z" fill="#BFDFE8"/>
<path d="M458.536 267.222V194.118H472.114V267.222H458.536ZM470.548 249.99L469.924 233.91L508.144 194.124H523.498L491.644 227.958L484.126 236.208L470.548 249.996V249.99ZM509.5 267.222L481.408 233.91L490.492 223.992L525.478 267.228H509.5V267.222Z" fill="white"/>
<path d="M532.786 267.222V194.118H546.364V267.222H532.786Z" fill="white"/>
<path d="M565.54 267.222V194.118H597.598C605.392 194.118 612.304 195.63 618.328 198.66C624.352 201.69 629.032 205.956 632.374 211.452C635.716 216.954 637.384 223.356 637.384 230.67C637.384 237.984 635.71 244.386 632.374 249.888C629.032 255.39 624.346 259.65 618.328 262.68C612.304 265.71 605.392 267.222 597.598 267.222H565.54ZM579.118 255.732H596.764C602.266 255.732 607.012 254.688 611.02 252.6C615.022 250.512 618.154 247.59 620.416 243.828C622.678 240.066 623.812 235.68 623.812 230.67C623.812 225.66 622.678 221.1 620.416 217.41C618.154 213.72 615.022 210.828 611.02 208.74C607.018 206.652 602.266 205.608 596.764 205.608H579.118V255.738V255.732Z" fill="white"/>
<path d="M674.458 268.266C668.746 268.266 663.298 267.444 658.114 265.812C652.924 264.174 648.766 262.068 645.634 259.494L650.332 248.946C653.254 251.244 656.878 253.158 661.192 254.688C665.506 256.218 669.928 256.986 674.458 256.986C678.286 256.986 681.388 256.566 683.752 255.732C686.116 254.898 687.862 253.764 688.972 252.336C690.082 250.908 690.64 249.294 690.64 247.482C690.64 245.256 689.836 243.462 688.24 242.106C686.638 240.75 684.568 239.67 682.024 238.866C679.48 238.068 676.66 237.336 673.564 236.67C670.468 236.01 667.366 235.194 664.27 234.216C661.174 233.244 658.336 232.008 655.756 230.508C653.182 229.014 651.106 227.01 649.54 224.502C647.974 221.994 647.188 218.796 647.188 214.896C647.188 210.996 648.25 207.288 650.374 203.982C652.498 200.676 655.732 198.03 660.088 196.044C664.438 194.058 669.958 193.068 676.642 193.068C681.028 193.068 685.378 193.626 689.698 194.742C694.012 195.858 697.774 197.454 700.978 199.548L696.694 210.096C693.418 208.146 690.046 206.7 686.566 205.764C683.086 204.822 679.744 204.354 676.54 204.354C672.85 204.354 669.82 204.81 667.456 205.71C665.086 206.616 663.364 207.816 662.284 209.316C661.204 210.816 660.664 212.466 660.664 214.278C660.664 216.504 661.45 218.298 663.016 219.654C664.582 221.01 666.634 222.072 669.178 222.84C671.716 223.608 674.554 224.34 677.692 225.03C680.824 225.726 683.92 226.542 686.986 227.484C690.046 228.426 692.866 229.644 695.446 231.138C698.02 232.638 700.096 234.618 701.662 237.09C703.228 239.562 704.014 242.712 704.014 246.54C704.014 250.368 702.952 254.04 700.828 257.346C698.704 260.652 695.452 263.298 691.066 265.284C686.68 267.27 681.142 268.26 674.458 268.26V268.266Z" fill="white"/>
<path d="M466.564 339.882H458.536V296.652H490.09V303.444H466.564V339.882ZM465.946 316.602H487.438V323.274H465.946V316.602Z" fill="white"/>
<path d="M488.788 339.882L508.24 296.652H516.142L535.654 339.882H527.194L510.52 300.912H513.73L496.996 339.882H488.782H488.788ZM497.74 329.874L499.96 323.574H523.24L525.4 329.874H497.734H497.74Z" fill="white"/>
<path d="M541.714 339.882V296.652H548.32L567.22 328.206H563.764L582.352 296.652H588.958L589.084 339.882H581.362V308.574H582.904L567.22 335.004H563.578L547.522 308.574H549.376V339.882H541.72H541.714Z" fill="white"/>
<path d="M600.688 339.882V296.652H608.716V339.882H600.688Z" fill="white"/>
<path d="M620.392 339.882V296.652H628.42V333.09H651.022V339.882H620.392Z" fill="white"/>
<path d="M656.818 339.882V296.652H664.846V339.882H656.818Z" fill="white"/>
<path d="M685.108 333.09H709.504V339.882H677.08V296.652H708.634V303.444H685.108V333.084V333.09ZM684.49 314.622H705.982V321.228H684.49V314.622Z" fill="white"/>
<path d="M732.418 340.5C729.04 340.5 725.818 340.014 722.752 339.048C719.686 338.082 717.226 336.834 715.372 335.31L718.15 329.076C719.878 330.432 722.02 331.566 724.57 332.472C727.12 333.378 729.736 333.828 732.412 333.828C734.674 333.828 736.51 333.582 737.908 333.09C739.306 332.598 740.338 331.926 740.998 331.08C741.658 330.234 741.988 329.28 741.988 328.206C741.988 326.886 741.514 325.83 740.566 325.026C739.618 324.222 738.394 323.586 736.894 323.112C735.388 322.638 733.726 322.206 731.89 321.816C730.06 321.426 728.224 320.94 726.394 320.364C724.564 319.788 722.884 319.056 721.36 318.174C719.836 317.292 718.612 316.104 717.688 314.622C716.764 313.14 716.296 311.244 716.296 308.94C716.296 306.636 716.926 304.44 718.18 302.484C719.434 300.528 721.348 298.962 723.922 297.792C726.496 296.616 729.76 296.034 733.708 296.034C736.3 296.034 738.874 296.364 741.43 297.024C743.98 297.684 746.206 298.632 748.102 299.862L745.57 306.096C743.632 304.944 741.64 304.092 739.582 303.534C737.524 302.976 735.544 302.7 733.654 302.7C731.47 302.7 729.682 302.97 728.284 303.504C726.886 304.038 725.866 304.752 725.23 305.634C724.594 306.522 724.27 307.5 724.27 308.568C724.27 309.888 724.732 310.944 725.662 311.748C726.592 312.552 727.804 313.182 729.304 313.632C730.804 314.088 732.484 314.52 734.338 314.928C736.192 315.342 738.022 315.822 739.834 316.38C741.646 316.938 743.314 317.658 744.838 318.54C746.362 319.428 747.586 320.598 748.51 322.062C749.434 323.526 749.902 325.386 749.902 327.654C749.902 329.922 749.272 332.094 748.018 334.044C746.764 336 744.838 337.566 742.246 338.736C739.654 339.912 736.378 340.494 732.43 340.494L732.418 340.5Z" fill="white"/>
<path d="M748.774 233.736H734.836V247.446H728.404V233.736H714.466V227.688H728.404V213.9H734.836V227.688H748.774V233.736Z" fill="#BFDFE8"/>
</svg>
