<svg width="310" height="48" viewBox="0 0 310 48" fill="none" xmlns="http://www.w3.org/2000/svg">
<path d="M81.8074 2.14832V0.100644C65.8445 0.100644 50.9925 8.11613 42.1392 21.2542C42.5436 21.8895 42.9343 22.5335 43.3095 23.1892C51.7151 10.1415 66.2086 2.14832 81.8074 2.14832Z" fill="#9ECADA"/>
<path d="M81.8074 13.9382V11.8899C66.647 11.8899 53.4235 21.3735 48.1813 34.9884C48.5231 36.2577 48.816 37.5463 49.0563 38.8528C53.0606 24.358 66.3721 13.9382 81.8074 13.9382Z" fill="#9ECADA"/>
<path d="M81.8071 8.04301V5.99533C66.5786 5.99533 52.757 14.1706 45.3644 27.1823C45.726 27.97 46.0696 28.7693 46.391 29.5774C53.2077 16.3997 66.7892 8.04301 81.8071 8.04301Z" fill="#9ECADA"/>
<path d="M36.0474 47.9151H34.0009C34.0009 29.1814 18.7582 13.938 0.0231865 13.938V11.8928C19.887 11.8928 36.0474 28.052 36.0474 47.9151Z" fill="#3874AA"/>
<path d="M0.0231934 5.99536V8.04304C22.0083 8.04304 39.895 25.9291 39.895 47.9149H41.9415C41.9415 24.8003 23.1371 5.99536 0.0231934 5.99536Z" fill="#3874AA"/>
<path d="M47.8374 47.914H45.7903C45.7903 22.6774 25.2597 2.14802 0.0231189 2.14802V0.100342C26.3878 0.100342 47.8374 21.5505 47.8374 47.914Z" fill="#3874AA"/>
<path d="M112.197 4.89904V2.15601H99.3384V19.7703H102.61V13.0266H111.115V10.2588H102.61V4.89904H112.197Z" fill="#10253E"/>
<path d="M124.402 20.0218C129.862 20.0218 133.888 16.1971 133.888 10.963C133.888 5.72956 129.862 1.90479 124.402 1.90479C118.942 1.90479 114.915 5.75432 114.915 10.963C114.915 16.1717 118.942 20.0218 124.402 20.0218ZM124.402 17.1531C120.854 17.1531 118.212 14.5618 118.212 10.963C118.212 7.36485 120.854 4.7729 124.402 4.7729C127.95 4.7729 130.592 7.36485 130.592 10.963C130.592 14.5618 127.95 17.1531 124.402 17.1531Z" fill="#10253E"/>
<path d="M145.941 20.0219C150.747 20.0219 153.641 17.2287 153.641 12.0956V2.15625H150.42V11.9699C150.42 15.5934 148.81 17.1532 145.966 17.1532C143.123 17.1532 141.487 15.5934 141.487 11.9699V2.15625H138.216V12.0956C138.216 17.2287 141.11 20.0219 145.941 20.0219Z" fill="#10253E"/>
<path d="M171.632 2.15625V14.0832L161.919 2.15625H159.226V19.7705H162.473V7.84294L172.185 19.7705H174.878V2.15625H171.632Z" fill="#10253E"/>
<path d="M184.188 19.7703H187.459V4.92443H193.297V2.15601H178.35V4.92443H184.188V19.7703Z" fill="#10253E"/>
<path d="M209.073 19.7703H212.496L204.544 2.15601H201.324L193.397 19.7703H196.769L198.505 15.6941H207.312L209.073 19.7703ZM199.612 13.1275L202.909 5.42722L206.23 13.1275H199.612Z" fill="#10253E"/>
<path d="M219.014 2.15625H215.742V19.7705H219.014V2.15625Z" fill="#10253E"/>
<path d="M237.181 2.15625V14.0832L227.468 2.15625H224.776V19.7705H228.022V7.84294L237.735 19.7705H240.427V2.15625H237.181Z" fill="#10253E"/>
<path d="M258.646 20.0218C261.539 20.0218 264.005 18.9902 265.641 17.0776L263.528 15.0645C262.244 16.4738 260.659 17.1531 258.822 17.1531C255.174 17.1531 252.532 14.5865 252.532 10.963C252.532 7.33946 255.174 4.7729 258.822 4.7729C260.659 4.7729 262.244 5.45278 263.528 6.83668L265.641 4.84844C264.005 2.93636 261.539 1.90479 258.67 1.90479C253.26 1.90479 249.234 5.70417 249.234 10.963C249.234 16.2224 253.26 20.0218 258.646 20.0218Z" fill="#10253E"/>
<path d="M273.063 2.15625H269.792V19.7705H273.063V2.15625Z" fill="#10253E"/>
<path d="M282.4 19.7703H285.672V4.92443H291.508V2.15601H276.562V4.92443H282.4V19.7703Z" fill="#10253E"/>
<path d="M309.218 2.15625H305.998L300.788 10.7371L295.631 2.15625H292.132L299.052 13.6052V19.7705H302.323V13.555L309.218 2.15625Z" fill="#10253E"/>
<path d="M107.495 46.0388C106.196 46.0388 104.992 45.8183 103.884 45.3769C102.777 44.9354 101.815 44.3149 100.999 43.5149C100.182 42.7156 99.5493 41.7787 99.0997 40.7044C98.6496 39.6301 98.4248 38.4518 98.4248 37.1688C98.4248 35.8864 98.6496 34.7075 99.0997 33.6332C99.5493 32.5589 100.186 31.6221 101.011 30.8227C101.835 30.0233 102.798 29.4022 103.897 28.9614C104.996 28.5199 106.196 28.2988 107.495 28.2988C108.728 28.2988 109.881 28.4988 110.955 28.8988C112.03 29.2982 112.95 29.9063 113.716 30.7224L112.916 31.5471C112.167 30.814 111.338 30.2852 110.43 29.9607C109.523 29.6357 108.561 29.4734 107.545 29.4734C106.429 29.4734 105.392 29.6648 104.434 30.0481C103.476 30.4313 102.643 30.9725 101.936 31.6722C101.227 32.3719 100.678 33.188 100.287 34.1205C99.8948 35.0536 99.6991 36.0697 99.6991 37.1688C99.6991 38.2685 99.8948 39.2846 100.287 40.2171C100.678 41.1502 101.227 41.9663 101.936 42.666C102.643 43.3651 103.476 43.9069 104.434 44.2896C105.392 44.6728 106.429 44.8642 107.545 44.8642C108.561 44.8642 109.523 44.7019 110.43 44.3775C111.338 44.0524 112.167 43.5149 112.916 42.7657L113.716 43.5905C112.95 44.4066 112.03 45.0183 110.955 45.4264C109.881 45.8344 108.728 46.0388 107.495 46.0388Z" fill="#10253E"/>
<path d="M131.956 28.4238H133.23V45.9136H131.956V28.4238ZM120.262 45.9143H118.988V28.4245H120.262V45.9143ZM132.106 37.5941H120.112V36.4697H132.106V37.5941Z" fill="#10253E"/>
<path d="M147.173 46.0389C145.007 46.0389 143.3 45.4061 142.051 44.1399C140.801 42.8742 140.177 40.9919 140.177 38.4934V28.4241H141.451V38.4433C141.451 40.6253 141.951 42.2414 142.951 43.2903C143.95 44.3399 145.365 44.8643 147.198 44.8643C149.014 44.8643 150.421 44.3399 151.42 43.2903C152.42 42.2414 152.92 40.6253 152.92 38.4433V28.4241H154.194V38.4934C154.194 40.9919 153.569 42.8742 152.32 44.1399C151.071 45.4061 149.355 46.0389 147.173 46.0389Z" fill="#10253E"/>
<path d="M161.139 45.9139V28.4241H167.41C168.876 28.4241 170.134 28.6569 171.183 29.1238C172.232 29.59 173.04 30.2606 173.607 31.1349C174.173 32.0092 174.457 33.0711 174.457 34.3207C174.457 35.5368 174.173 36.582 173.607 37.4563C173.04 38.3306 172.232 39.0055 171.183 39.4798C170.134 39.9547 168.876 40.1919 167.41 40.1919H161.839L162.413 39.5925V45.9139H161.139ZM173.282 45.9139L168.735 39.5677H170.184L174.731 45.9139H173.282ZM162.413 39.6674L161.839 39.068H167.41C169.292 39.068 170.721 38.6513 171.696 37.8185C172.67 36.9857 173.157 35.8197 173.157 34.3207C173.157 32.8049 172.67 31.6346 171.696 30.8098C170.721 29.9857 169.292 29.5733 167.41 29.5733H161.839L162.413 28.9485V39.6674Z" fill="#10253E"/>
<path d="M187.524 46.0388C186.224 46.0388 185.022 45.8183 183.913 45.3769C182.806 44.9354 181.845 44.3149 181.028 43.5149C180.212 42.7156 179.579 41.7787 179.129 40.7044C178.679 39.6301 178.455 38.4518 178.455 37.1688C178.455 35.8864 178.679 34.7075 179.129 33.6332C179.579 32.5589 180.216 31.6221 181.04 30.8227C181.866 30.0233 182.827 29.4022 183.927 28.9614C185.025 28.5199 186.224 28.2988 187.524 28.2988C188.757 28.2988 189.91 28.4988 190.985 28.8988C192.06 29.2982 192.979 29.9063 193.746 30.7224L192.946 31.5471C192.196 30.814 191.367 30.2852 190.46 29.9607C189.552 29.6357 188.591 29.4734 187.574 29.4734C186.458 29.4734 185.421 29.6648 184.463 30.0481C183.505 30.4313 182.673 30.9725 181.965 31.6722C181.257 32.3719 180.707 33.188 180.316 34.1205C179.925 35.0536 179.729 36.0697 179.729 37.1688C179.729 38.2685 179.925 39.2846 180.316 40.2171C180.707 41.1502 181.257 41.9663 181.965 42.666C182.673 43.3651 183.505 43.9069 184.463 44.2896C185.421 44.6728 186.458 44.8642 187.574 44.8642C188.591 44.8642 189.552 44.7019 190.46 44.3775C191.367 44.0524 192.196 43.5149 192.946 42.7657L193.746 43.5905C192.979 44.4066 192.06 45.0183 190.985 45.4264C189.91 45.8344 188.757 46.0388 187.524 46.0388Z" fill="#10253E"/>
<path d="M211.985 28.4238H213.259V45.9136H211.985V28.4238ZM200.292 45.9143H199.017V28.4245H200.292V45.9143ZM212.134 37.5941H200.141V36.4697H212.134V37.5941Z" fill="#10253E"/>
</svg>
