<svg width="94" height="24" viewBox="0 0 94 24" fill="none" xmlns="http://www.w3.org/2000/svg">
<g clip-path="url(#clip0_670_300)">
<path d="M26.4713 0.418322C26.8355 0.392162 27.2003 0.447242 27.5405 0.579602C27.8807 0.711961 28.1879 0.9183 28.4387 1.18374C28.6895 1.44918 28.8785 1.76712 28.9919 2.11458C29.1053 2.46204 29.1407 2.83044 29.0945 3.19307C29.0945 4.97711 28.1321 6.00257 26.4713 6.00257H24.4577V0.418322H26.4713ZM25.3235 5.21285H26.3747C26.6345 5.22845 26.8949 5.18573 27.1367 5.08781C27.3779 4.98989 27.5951 4.83929 27.7709 4.64687C27.9473 4.45451 28.0781 4.22519 28.1549 3.97565C28.2311 3.72617 28.2509 3.46271 28.2131 3.20447C28.2485 2.94726 28.2263 2.68542 28.1489 2.43774C28.0709 2.19 27.9395 1.9626 27.7637 1.77174C27.5879 1.58088 27.3725 1.43136 27.1325 1.3338C26.8919 1.23624 26.6333 1.1931 26.3747 1.2075H25.3235V5.21285Z" fill="white"/>
<path d="M30.0731 3.89373C30.0467 3.61677 30.0779 3.33735 30.1655 3.07341C30.2531 2.80941 30.3953 2.56671 30.5819 2.36079C30.7691 2.15493 30.9965 1.99041 31.2503 1.87785C31.5047 1.76529 31.7795 1.70715 32.0567 1.70715C32.3345 1.70715 32.6093 1.76529 32.8631 1.87785C33.1175 1.99041 33.3449 2.15493 33.5321 2.36079C33.7187 2.56671 33.8603 2.80941 33.9485 3.07341C34.0361 3.33735 34.0673 3.61677 34.0409 3.89373C34.0679 4.17099 34.0367 4.45077 33.9491 4.71519C33.8621 4.97961 33.7199 5.22272 33.5333 5.429C33.3467 5.63528 33.1187 5.80016 32.8643 5.91296C32.6099 6.02576 32.3351 6.08402 32.0567 6.08402C31.7789 6.08402 31.5041 6.02576 31.2497 5.91296C30.9953 5.80016 30.7673 5.63528 30.5807 5.429C30.3935 5.22272 30.2519 4.97961 30.1649 4.71519C30.0773 4.45077 30.0461 4.17099 30.0731 3.89373ZM33.1871 3.89373C33.1871 2.98023 32.7773 2.44605 32.0585 2.44605C31.3367 2.44605 30.9305 2.98023 30.9305 3.89373C30.9305 4.81455 31.3367 5.34464 32.0585 5.34464C32.7773 5.34464 33.1871 4.81089 33.1871 3.89373Z" fill="white"/>
<path d="M39.3161 6.00266H38.4545L37.5851 2.89893H37.5191L36.6533 6.00266H35.8001L34.6403 1.78845H35.4827L36.2363 5.00414H36.2987L37.1633 1.78845H37.9601L38.8247 5.00414H38.8907L39.6407 1.78845H40.4711L39.3161 6.00266Z" fill="white"/>
<path d="M41.4461 1.78838H42.2453V2.45786H42.3077C42.4127 2.21744 42.5903 2.01584 42.8153 1.88126C43.0403 1.74668 43.3019 1.68578 43.5629 1.70702C43.7675 1.69166 43.9733 1.72256 44.1647 1.7975C44.3555 1.8725 44.5277 1.98956 44.6675 2.1401C44.8073 2.29064 44.9117 2.47076 44.9723 2.66708C45.0335 2.86346 45.0491 3.07106 45.0191 3.27445V6.00253H44.1887V3.48331C44.1887 2.8061 43.8953 2.46926 43.2809 2.46926C43.1423 2.46278 43.0031 2.48648 42.8741 2.53874C42.7451 2.591 42.6293 2.67056 42.5339 2.77202C42.4385 2.87342 42.3659 2.99432 42.3215 3.12643C42.2771 3.25849 42.2615 3.39865 42.2765 3.53725V6.00259H41.4461V1.78838Z" fill="white"/>
<path d="M46.3421 0.143311H47.1725V6.0026H46.3421V0.143311Z" fill="white"/>
<path d="M48.3269 3.89367C48.3005 3.61671 48.3323 3.33729 48.4199 3.07329C48.5075 2.80929 48.6497 2.56653 48.8363 2.36067C49.0235 2.15481 49.2509 1.99029 49.5047 1.87773C49.7591 1.76517 50.0339 1.70703 50.3117 1.70703C50.5895 1.70703 50.8637 1.76517 51.1181 1.87773C51.3719 1.99029 51.5999 2.15481 51.7865 2.36067C51.9731 2.56653 52.1153 2.80929 52.2029 3.07329C52.2905 3.33729 52.3223 3.61671 52.2959 3.89367C52.3229 4.17093 52.2917 4.4507 52.2041 4.71512C52.1165 4.97954 51.9749 5.22266 51.7877 5.42894C51.6011 5.63522 51.3731 5.80004 51.1187 5.9129C50.8643 6.0257 50.5895 6.08396 50.3117 6.08396C50.0333 6.08396 49.7585 6.0257 49.5041 5.9129C49.2497 5.80004 49.0217 5.63522 48.8351 5.42894C48.6479 5.22266 48.5063 4.97954 48.4187 4.71512C48.3317 4.4507 48.3005 4.17093 48.3269 3.89367ZM51.4415 3.89367C51.4415 2.98017 51.0317 2.44599 50.3129 2.44599C49.5911 2.44599 49.1849 2.98017 49.1849 3.89367C49.1849 4.81448 49.5911 5.34458 50.3129 5.34458C51.0317 5.34452 51.4415 4.81082 51.4415 3.89367Z" fill="white"/>
<path d="M53.1695 4.81089C53.1695 4.05237 53.7335 3.61503 54.7343 3.55287L55.8743 3.48705V3.12333C55.8743 2.67825 55.5803 2.42691 55.0127 2.42691C54.5495 2.42691 54.2279 2.59737 54.1361 2.89527H53.3321C53.4167 2.17143 54.0965 1.70715 55.0511 1.70715C56.1059 1.70715 56.7005 2.23311 56.7005 3.12333V6.00272H55.9013V5.41046H55.8359C55.7027 5.62292 55.5149 5.79608 55.2929 5.91236C55.0709 6.02858 54.8225 6.08372 54.5723 6.07214C54.3953 6.09056 54.2171 6.07166 54.0479 6.0167C53.8793 5.9618 53.7239 5.87204 53.5913 5.75318C53.4593 5.63438 53.3537 5.48912 53.2811 5.32682C53.2085 5.16452 53.1701 4.98879 53.1695 4.81089ZM55.8743 4.45083V4.09851L54.8465 4.16433C54.2675 4.20315 54.0047 4.40055 54.0047 4.77207C54.0047 5.15132 54.3329 5.37206 54.7847 5.37206C54.9173 5.3855 55.0505 5.37212 55.1777 5.3327C55.3049 5.29334 55.4225 5.22872 55.5245 5.14274C55.6259 5.05682 55.7093 4.95129 55.7693 4.83237C55.8293 4.71351 55.8653 4.58373 55.8743 4.45083Z" fill="white"/>
<path d="M57.7925 3.89366C57.7925 2.56209 58.4759 1.71849 59.5385 1.71849C59.8019 1.70637 60.0629 1.76943 60.2909 1.90035C60.5195 2.03127 60.7061 2.22465 60.8291 2.45786H60.8909V0.143311H61.7213V6.0026H60.9256V5.33678H60.8603C60.7277 5.56838 60.5345 5.75936 60.3017 5.88896C60.0689 6.01856 59.8049 6.08186 59.5385 6.07202C58.4687 6.07208 57.7925 5.22848 57.7925 3.89366ZM58.6499 3.89366C58.6499 4.78754 59.0705 5.32538 59.7742 5.32538C60.4738 5.32538 60.9065 4.77974 60.9065 3.89732C60.9065 3.01904 60.4696 2.46566 59.7742 2.46566C59.0753 2.46566 58.6499 3.00716 58.6499 3.89366Z" fill="white"/>
<path d="M65.1562 3.89373C65.1298 3.61677 65.1616 3.33735 65.2492 3.07341C65.3368 2.80941 65.4784 2.56671 65.6656 2.36079C65.8522 2.15493 66.0802 1.99041 66.334 1.87785C66.5878 1.76529 66.8626 1.70715 67.1404 1.70715C67.4182 1.70715 67.693 1.76529 67.9468 1.87785C68.2006 1.99041 68.4286 2.15493 68.6152 2.36079C68.8024 2.56671 68.944 2.80941 69.0316 3.07341C69.1192 3.33735 69.151 3.61677 69.1246 3.89373C69.1516 4.17099 69.1204 4.45077 69.0328 4.71519C68.9452 4.97961 68.8036 5.22272 68.617 5.429C68.4298 5.63528 68.2018 5.80016 67.948 5.91296C67.6936 6.02576 67.4188 6.08402 67.1404 6.08402C66.8626 6.08402 66.5872 6.02576 66.3334 5.91296C66.079 5.80016 65.851 5.63528 65.6644 5.429C65.4772 5.22272 65.3356 4.97961 65.248 4.71519C65.1604 4.45077 65.1292 4.17099 65.1562 3.89373ZM68.2708 3.89373C68.2708 2.98023 67.861 2.44605 67.1416 2.44605C66.4198 2.44605 66.0142 2.98023 66.0142 3.89373C66.0142 4.81455 66.4204 5.34464 67.1416 5.34464C67.861 5.34464 68.2708 4.81089 68.2708 3.89373Z" fill="white"/>
<path d="M70.2388 1.78838H71.038V2.45786H71.1004C71.2054 2.21744 71.383 2.01584 71.608 1.88126C71.833 1.74668 72.0946 1.68578 72.3556 1.70702C72.5602 1.69166 72.766 1.72256 72.9568 1.7975C73.1482 1.8725 73.3204 1.98956 73.4602 2.1401C73.6 2.29064 73.7038 2.47076 73.765 2.66708C73.8262 2.86346 73.8418 3.07106 73.8118 3.27445V6.00253H72.9814V3.48331C72.9814 2.8061 72.688 2.46926 72.0736 2.46926C71.9344 2.46278 71.7958 2.48648 71.6668 2.53874C71.5378 2.591 71.422 2.67056 71.3266 2.77202C71.2312 2.87342 71.1586 2.99432 71.1142 3.12643C71.0698 3.25849 71.0542 3.39865 71.0692 3.53725V6.00259H70.2388V1.78838Z" fill="white"/>
<path d="M78.5032 0.739136V1.80755H79.4152V2.50811H78.5032V4.67507C78.5032 5.11648 78.685 5.30981 79.0984 5.30981C79.204 5.30945 79.3096 5.30302 79.4152 5.2906V5.98336C79.2658 6.01006 79.1146 6.02428 78.9634 6.02584C78.04 6.02584 77.6722 5.70052 77.6722 4.88801V2.50805H77.0044V1.80749H77.6722V0.739136H78.5032Z" fill="white"/>
<path d="M80.5492 0.143311H81.3724V2.46561H81.4378C81.5482 2.22297 81.7306 2.02023 81.9604 1.88517C82.1896 1.75005 82.4554 1.68915 82.7206 1.71069C82.9246 1.69959 83.128 1.73367 83.317 1.81047C83.506 1.88721 83.6758 2.00487 83.8144 2.15493C83.9524 2.30498 84.0562 2.48378 84.1174 2.67854C84.1792 2.87336 84.1966 3.07934 84.1696 3.28178V6.0026H83.3386V3.48698C83.3386 2.81384 83.0254 2.47292 82.4392 2.47292C82.2964 2.46122 82.1524 2.48085 82.0186 2.53053C81.8842 2.58014 81.7624 2.65862 81.661 2.76038C81.5602 2.86214 81.4828 2.98478 81.4342 3.11966C81.3856 3.25454 81.367 3.39848 81.3796 3.54134V6.0026H80.5492V0.143311Z" fill="white"/>
<path d="M89.011 4.86478C88.8982 5.24991 88.654 5.58309 88.321 5.80599C87.9874 6.02883 87.5866 6.12723 87.1882 6.08397C86.911 6.09129 86.6356 6.03813 86.3812 5.92815C86.1262 5.81811 85.8988 5.65395 85.714 5.44701C85.5286 5.24007 85.3912 4.99527 85.3102 4.72966C85.2292 4.46404 85.207 4.1839 85.2448 3.9088C85.2076 3.6328 85.2304 3.35212 85.3114 3.08572C85.3924 2.81926 85.5292 2.57338 85.7128 2.36458C85.897 2.15584 86.1238 1.98904 86.3776 1.87564C86.6314 1.76218 86.9068 1.7047 87.1846 1.7071C88.3552 1.7071 89.0614 2.50822 89.0614 3.83152V4.12174H86.0908V4.16836C86.0776 4.32304 86.0968 4.47868 86.1472 4.62538C86.1982 4.77208 86.2786 4.9066 86.3842 5.02024C86.4898 5.13387 86.6176 5.22423 86.7604 5.28543C86.9026 5.34663 87.0562 5.37735 87.211 5.37561C87.4096 5.39955 87.6106 5.36367 87.7888 5.27271C87.9676 5.18175 88.1146 5.03973 88.2118 4.86478H89.011ZM86.0902 3.50668H88.2154C88.2262 3.3652 88.207 3.22318 88.159 3.08956C88.1116 2.956 88.0366 2.8339 87.9394 2.73106C87.8416 2.62828 87.7234 2.54704 87.5932 2.49256C87.4624 2.43814 87.3214 2.41168 87.1798 2.41492C87.0364 2.41312 86.8936 2.44012 86.761 2.49436C86.6278 2.5486 86.5072 2.62894 86.4052 2.7307C86.3038 2.83246 86.224 2.95354 86.1694 3.0868C86.1154 3.22006 86.0884 3.3628 86.0908 3.50668H86.0902Z" fill="white"/>
<path d="M14.3772 11.2704C14.3877 10.4581 14.6031 9.66162 15.0034 8.95512C15.4038 8.24856 15.976 7.65498 16.6669 7.22952C16.228 6.60162 15.649 6.0849 14.9758 5.72041C14.3026 5.35585 13.5539 5.15359 12.789 5.12965C11.1575 4.95805 9.57574 6.10752 8.74432 6.10752C7.89682 6.10752 6.61672 5.14663 5.23823 5.17507C4.34663 5.20393 3.47765 5.46361 2.71602 5.92884C1.95444 6.39414 1.32612 7.04904 0.892317 7.82988C-0.986758 11.0886 0.414839 15.8778 2.21483 18.512C3.11543 19.8019 4.16795 21.2427 5.54519 21.1915C6.8929 21.1356 7.39624 20.3308 9.02296 20.3308C10.6347 20.3308 11.1069 21.1915 12.5121 21.1591C13.9582 21.1356 14.8693 19.8635 15.7383 18.5615C16.3854 17.6424 16.8834 16.6266 17.2134 15.5517C16.3735 15.1958 15.6565 14.6 15.1521 13.8387C14.6477 13.0773 14.3782 12.1841 14.3772 11.2704Z" fill="white"/>
<path d="M11.7234 3.39713C12.5119 2.44901 12.9004 1.23036 12.8063 0C11.6017 0.12672 10.4889 0.703438 9.68979 1.61514C9.29908 2.06058 8.9998 2.57873 8.80912 3.14009C8.61844 3.70139 8.54008 4.29485 8.57854 4.88651C9.18106 4.89275 9.77716 4.76195 10.3219 4.50395C10.8666 4.24595 11.3459 3.86753 11.7234 3.39713Z" fill="white"/>
<path d="M30.5459 18.0556H26.1233L25.0613 21.1968H23.1881L27.3773 9.57507H29.3231L33.5123 21.1968H31.6073L30.5459 18.0556ZM26.5817 16.6061H30.0869L28.3589 11.5081H28.3103L26.5817 16.6061Z" fill="white"/>
<path d="M42.5591 16.9609C42.5591 19.5939 41.1521 21.2856 39.0287 21.2856C38.4911 21.3138 37.9559 21.1897 37.4855 20.9275C37.0145 20.6654 36.6269 20.2757 36.3671 19.8032H36.3269V24H34.5905V12.7238H36.2717V14.1331H36.3035C36.5753 13.6628 36.9695 13.2752 37.4435 13.0114C37.9181 12.7477 38.4545 12.6176 38.9969 12.6351C41.1437 12.6351 42.5591 14.3351 42.5591 16.9609ZM40.7741 16.9609C40.7741 15.2453 39.8891 14.1175 38.5391 14.1175C37.2119 14.1175 36.3197 15.2691 36.3197 16.9609C36.3197 18.6681 37.2119 19.8115 38.5391 19.8115C39.8891 19.8115 40.7741 18.6919 40.7741 16.9609Z" fill="white"/>
<path d="M51.8699 16.9609C51.8699 19.5939 50.4629 21.2856 48.3395 21.2856C47.8013 21.3138 47.2667 21.1897 46.7957 20.9275C46.3253 20.6654 45.9377 20.2757 45.6779 19.8032H45.6377V24H43.9013V12.7238H45.5819V14.1331H45.6137C45.8855 13.6628 46.2797 13.2752 46.7543 13.0114C47.2283 12.7477 47.7653 12.6176 48.3077 12.6351C50.4545 12.6351 51.8699 14.3351 51.8699 16.9609ZM50.0849 16.9609C50.0849 15.2453 49.1999 14.1175 47.8493 14.1175C46.5227 14.1175 45.6305 15.2691 45.6305 16.9609C45.6305 18.6681 46.5227 19.8115 47.8493 19.8115C49.1999 19.8115 50.0849 18.6919 50.0849 16.9609Z" fill="white"/>
<path d="M58.0229 17.9586C58.1513 19.1112 59.2691 19.8678 60.7967 19.8678C62.26 19.8678 63.313 19.1111 63.313 18.072C63.313 17.1699 62.6776 16.6297 61.174 16.2596L59.6705 15.8967C57.5399 15.3813 56.5511 14.3832 56.5511 12.7637C56.5511 10.7585 58.2953 9.38123 60.7721 9.38123C63.2242 9.38123 64.9054 10.7585 64.9618 12.7637H63.2086C63.1042 11.6039 62.1466 10.9038 60.748 10.9038C59.3494 10.9038 58.3925 11.6122 58.3925 12.6431C58.3925 13.4648 59.0033 13.9482 60.4991 14.3183L61.7771 14.6327C64.1578 15.1967 65.146 16.1545 65.146 17.8544C65.146 20.0287 63.418 21.3904 60.6677 21.3904C58.0949 21.3904 56.3573 20.0607 56.2451 17.9586L58.0229 17.9586Z" fill="white"/>
<path d="M68.8954 10.7185V12.7237H70.504V14.101H68.8954V18.7722C68.8954 19.4979 69.2176 19.836 69.9244 19.836C70.1152 19.8327 70.306 19.8192 70.4956 19.7958V21.1648C70.1776 21.2244 69.8548 21.2513 69.5314 21.2453C67.8184 21.2453 67.1506 20.601 67.1506 18.9577V14.101H65.9206V12.7237H67.1506V10.7185H68.8954Z" fill="white"/>
<path d="M71.4346 16.9607C71.4346 14.2948 73.0024 12.6195 75.4468 12.6195C77.8996 12.6195 79.4596 14.2947 79.4596 16.9607C79.4596 19.634 77.9074 21.302 75.4468 21.302C72.9868 21.302 71.4346 19.634 71.4346 16.9607ZM77.6902 16.9607C77.6902 15.1319 76.8538 14.0525 75.4468 14.0525C74.0398 14.0525 73.2028 15.1402 73.2028 16.9607C73.2028 18.7969 74.0398 19.868 75.4468 19.868C76.8538 19.868 77.6902 18.7969 77.6902 16.9607Z" fill="white"/>
<path d="M80.8912 12.7236H82.5472V14.1659H82.5874C82.6996 13.7154 82.963 13.3174 83.3332 13.0386C83.704 12.7598 84.1588 12.6173 84.622 12.635C84.8224 12.6343 85.0216 12.6561 85.2172 12.6999V14.3267C84.9646 14.2494 84.7006 14.2139 84.4366 14.2216C84.1846 14.2113 83.9332 14.2559 83.6998 14.3522C83.4664 14.4485 83.2564 14.5943 83.0842 14.7794C82.9126 14.9646 82.783 15.1849 82.7038 15.4251C82.6252 15.6653 82.5988 15.9198 82.6276 16.1711V21.1968H80.8912V12.7236Z" fill="white"/>
<path d="M93.223 18.7082C92.989 20.2464 91.4938 21.302 89.5804 21.302C87.1198 21.302 85.5922 19.6505 85.5922 17.0009C85.5922 14.3432 87.1276 12.6195 89.5072 12.6195C91.8478 12.6195 93.3196 14.2298 93.3196 16.799V17.3948H87.3448V17.5C87.3172 17.8118 87.3562 18.1259 87.4594 18.4215C87.562 18.7171 87.727 18.9873 87.9418 19.2144C88.1572 19.4414 88.4182 19.6199 88.7074 19.7381C88.9972 19.8563 89.308 19.9115 89.6206 19.8999C90.031 19.9385 90.4426 19.8433 90.7948 19.6286C91.1464 19.4138 91.42 19.091 91.5742 18.7082H93.223ZM87.3532 16.1793H91.582C91.5976 15.8989 91.5556 15.6184 91.4578 15.3551C91.36 15.092 91.2088 14.8519 91.0138 14.65C90.8188 14.448 90.5848 14.2886 90.3256 14.1817C90.0664 14.0748 89.7874 14.0228 89.5072 14.0288C89.2246 14.0271 88.9444 14.0815 88.6828 14.1889C88.4212 14.2963 88.183 14.4545 87.9826 14.6545C87.7828 14.8544 87.6238 15.0921 87.5158 15.3538C87.4078 15.6155 87.3526 15.8961 87.3532 16.1793Z" fill="white"/>
</g>
<defs>
<clipPath id="clip0_670_300">
<rect width="94" height="24" fill="white"/>
</clipPath>
</defs>
</svg>
