<svg width="103" height="24" viewBox="0 0 103 24" fill="none" xmlns="http://www.w3.org/2000/svg">
<g clip-path="url(#clip0_679_331)">
<path d="M32.9902 2.57984H30.4253V3.21576H32.3472C32.2952 3.73261 32.0879 4.13921 31.7413 4.43468C31.3938 4.73015 30.9501 4.87832 30.4253 4.87832C29.8485 4.87832 29.3608 4.67899 28.9621 4.27945C28.5705 3.87285 28.3703 3.37099 28.3703 2.76418C28.3703 2.15824 28.5705 1.65551 28.9621 1.24891C29.3608 0.850244 29.8485 0.650913 30.4253 0.650913C30.7208 0.650913 31.0022 0.702069 31.2606 0.813201C31.519 0.924332 31.7263 1.07956 31.8886 1.27889L32.3763 0.79115C32.1549 0.539781 31.8736 0.347506 31.5269 0.207269C31.1794 0.0670314 30.8169 0 30.4253 0C29.6562 0 29.0062 0.266363 28.4744 0.798206C27.9416 1.33093 27.6761 1.98802 27.6761 2.76418C27.6761 3.54033 27.9416 4.1983 28.4744 4.73015C29.0062 5.26287 29.6562 5.52835 30.4253 5.52835C31.2306 5.52835 31.8736 5.26993 32.3692 4.74514C32.805 4.30943 33.0272 3.71761 33.0272 2.9785C33.0272 2.85326 33.0122 2.72008 32.9902 2.57984Z" fill="white"/>
<path d="M34.0027 0.118187V5.41016H37.0924V4.76013H34.6827V3.08258H36.8551V2.44666H34.6827V0.7691H37.0924V0.118187H34.0027Z" fill="white"/>
<path d="M41.4371 0.7691V0.118187H37.8006V0.7691H39.2788V5.41016H39.9588V0.7691H41.4371Z" fill="white"/>
<path d="M44.749 0.118187H44.0689V5.41016H44.749V0.118187Z" fill="white"/>
<path d="M49.2427 0.7691V0.118187H45.6063V0.7691H47.0845V5.41016H47.7645V0.7691H49.2427Z" fill="white"/>
<path d="M56.1241 0.806144C55.5993 0.266363 54.9563 0 54.1872 0C53.419 0 52.7751 0.266363 52.2503 0.798206C51.7256 1.32299 51.4671 1.98096 51.4671 2.76418C51.4671 3.54827 51.7256 4.20536 52.2503 4.73015C52.7751 5.26287 53.419 5.52835 54.1872 5.52835C54.9484 5.52835 55.5993 5.26287 56.1241 4.73015C56.6489 4.20536 56.9073 3.54827 56.9073 2.76418C56.9073 1.98802 56.6489 1.33093 56.1241 0.806144ZM52.739 1.24891C53.1306 0.850244 53.6104 0.650913 54.1872 0.650913C54.764 0.650913 55.2438 0.850244 55.6284 1.24891C56.02 1.64139 56.2123 2.15119 56.2123 2.76418C56.2123 3.37805 56.02 3.88784 55.6284 4.27945C55.2438 4.67899 54.764 4.87832 54.1872 4.87832C53.6104 4.87832 53.1306 4.67899 52.739 4.27945C52.3544 3.88078 52.1621 3.37805 52.1621 2.76418C52.1621 2.15119 52.3544 1.64845 52.739 1.24891Z" fill="white"/>
<path d="M58.5407 2.11414L58.5116 1.09367H58.5407L61.2317 5.41016H61.9408V0.118187H61.2608V3.21576L61.2908 4.23535H61.2608L58.6889 0.118187H57.8616V5.41016H58.5407V2.11414Z" fill="white"/>
<path d="M85.5219 20.405H87.1677V9.37826H85.5219V20.405ZM100.346 13.3499L98.459 18.1303H98.4026L96.4445 13.3499H94.6717L97.6088 20.0319L95.9339 23.7477H97.6502L102.176 13.3499H100.346ZM91.0114 19.1525C90.4734 19.1525 89.7211 18.8827 89.7211 18.2159C89.7211 17.3647 90.6578 17.0384 91.4657 17.0384C92.1889 17.0384 92.5302 17.1945 92.9695 17.4071C92.8416 18.4284 91.9622 19.1525 91.0114 19.1525ZM91.2108 13.1091C90.0192 13.1091 88.7853 13.6339 88.2746 14.7972L89.7352 15.4067C90.0474 14.7972 90.6286 14.5988 91.239 14.5988C92.0901 14.5988 92.9554 15.1095 92.9695 16.017V16.1308C92.6713 15.9606 92.0328 15.7048 91.2531 15.7048C89.6779 15.7048 88.0753 16.5701 88.0753 18.1876C88.0753 19.6632 89.3665 20.6131 90.813 20.6131C91.919 20.6131 92.5302 20.1166 92.9121 19.5353H92.9695V20.3865H94.5588V16.1591C94.5588 14.201 93.0965 13.1091 91.2108 13.1091ZM81.0396 14.6923H78.6988V10.9129H81.0396C82.27 10.9129 82.9685 11.9316 82.9685 12.8031C82.9685 13.6577 82.27 14.6923 81.0396 14.6923ZM80.9972 9.37826H77.053V20.405H78.6988V16.227H80.9972C82.8212 16.227 84.6143 14.9066 84.6143 12.8031C84.6143 10.6995 82.8212 9.37826 80.9972 9.37826ZM59.4924 19.1543C58.3555 19.1543 57.4038 18.2018 57.4038 16.8955C57.4038 15.5734 58.3555 14.6076 59.4924 14.6076C60.6152 14.6076 61.4963 15.5734 61.4963 16.8955C61.4963 18.2018 60.6152 19.1543 59.4924 19.1543ZM61.3825 13.9682H61.3252C60.9556 13.5272 60.2456 13.1294 59.3504 13.1294C57.4744 13.1294 55.7554 14.7778 55.7554 16.8955C55.7554 18.9982 57.4744 20.6317 59.3504 20.6317C60.2456 20.6317 60.9556 20.2339 61.3252 19.7796H61.3825V20.3194C61.3825 21.7544 60.6152 22.5218 59.3786 22.5218C58.3705 22.5218 57.7452 21.7977 57.4894 21.1864L56.0544 21.7827C56.4663 22.7776 57.56 24 59.3786 24C61.312 24 62.9454 22.8631 62.9454 20.0919V13.3569H61.3825V13.9682ZM64.0823 20.405H65.7308V9.37826H64.0823V20.405ZM68.1598 16.7667C68.1183 15.3176 69.2835 14.5794 70.1213 14.5794C70.7749 14.5794 71.3288 14.9057 71.514 15.3741L68.1598 16.7667ZM73.2754 15.517C72.9631 14.6782 72.0115 13.1294 70.0649 13.1294C68.1316 13.1294 66.5263 14.65 66.5263 16.8805C66.5263 18.9841 68.1183 20.6317 70.2492 20.6317C71.9683 20.6317 72.9631 19.5803 73.3759 18.97L72.0961 18.1171C71.6701 18.7424 71.088 19.1543 70.2492 19.1543C69.4105 19.1543 68.8142 18.7706 68.4306 18.0174L73.4465 15.943L73.2754 15.517ZM33.3139 14.2804V15.8715H37.1223C37.0086 16.7667 36.7104 17.4203 36.2553 17.8754C35.7014 18.4293 34.8344 19.0405 33.3139 19.0405C30.9695 19.0405 29.1367 17.1513 29.1367 14.8061C29.1367 12.4617 30.9695 10.5716 33.3139 10.5716C34.5787 10.5716 35.5021 11.0691 36.1848 11.7085L37.3067 10.5857C36.355 9.67638 35.0902 8.98048 33.3139 8.98048C30.1025 8.98048 27.4027 11.5947 27.4027 14.8061C27.4027 18.0174 30.1025 20.6317 33.3139 20.6317C35.047 20.6317 36.355 20.0636 37.3781 18.9982C38.4295 17.946 38.7567 16.4686 38.7567 15.2753C38.7567 14.9057 38.7276 14.5644 38.6711 14.2804H33.3139ZM43.0855 19.1543C41.9486 19.1543 40.9678 18.2167 40.9678 16.8805C40.9678 15.5311 41.9486 14.6076 43.0855 14.6076C44.2224 14.6076 45.2032 15.5311 45.2032 16.8805C45.2032 18.2167 44.2224 19.1543 43.0855 19.1543ZM43.0855 13.1294C41.0111 13.1294 39.3203 14.7073 39.3203 16.8805C39.3203 19.0405 41.0111 20.6317 43.0855 20.6317C45.16 20.6317 46.8508 19.0405 46.8508 16.8805C46.8508 14.7073 45.16 13.1294 43.0855 13.1294ZM51.2996 19.1543C50.1635 19.1543 49.1828 18.2167 49.1828 16.8805C49.1828 15.5311 50.1635 14.6076 51.2996 14.6076C52.4364 14.6076 53.4172 15.5311 53.4172 16.8805C53.4172 18.2167 52.4364 19.1543 51.2996 19.1543ZM51.2996 13.1294C49.2251 13.1294 47.5343 14.7073 47.5343 16.8805C47.5343 19.0405 49.2251 20.6317 51.2996 20.6317C53.3749 20.6317 55.0657 19.0405 55.0657 16.8805C55.0657 14.7073 53.3749 13.1294 51.2996 13.1294Z" fill="white"/>
<path d="M9.47704 11.077L0.0864258 21.0435C0.0873078 21.0453 0.0873076 21.0471 0.0881896 21.0488C0.37572 22.1319 1.36444 22.9284 2.53749 22.9284C3.00672 22.9284 3.44683 22.8014 3.82433 22.5791L3.85431 22.5615L14.4242 16.4625L9.47704 11.077Z" fill="#EB4335"/>
<path d="M18.977 9.38003L18.9682 9.37386L14.4048 6.72787L9.26361 11.3028L14.4224 16.4607L18.962 13.842C19.7576 13.4125 20.2974 12.5737 20.2974 11.6062C20.2974 10.6457 19.7647 9.81044 18.977 9.38003Z" fill="#FABC13"/>
<path d="M0.0864353 2.12737C0.0299875 2.33552 0 2.55338 0 2.78005V20.3909C0 20.6175 0.0291055 20.8363 0.0864353 21.0435L9.79986 11.3319L0.0864353 2.12737Z" fill="#547DBF"/>
<path d="M9.54584 11.585L14.4065 6.7261L3.84814 0.605047C3.46447 0.374846 3.0173 0.242546 2.53749 0.242546C1.36444 0.242546 0.374839 1.04075 0.0864258 2.12473V2.12737L9.54584 11.585Z" fill="#30A851"/>
</g>
<defs>
<clipPath id="clip0_679_331">
<rect width="103" height="24" fill="white"/>
</clipPath>
</defs>
</svg>
